<mxfile host="app.diagrams.net" agent="Mozilla/5.0 (Windows NT 10.0; Win64; x64) AppleWebKit/537.36 (KHTML, like Gecko) Chrome/130.0.0.0 Safari/537.36 Edg/130.0.0.0" version="24.8.0">
  <diagram name="Page-1" id="MBab6_zTOveaseLpX-W1">
    <mxGraphModel dx="7665" dy="1138" grid="1" gridSize="10" guides="1" tooltips="1" connect="1" arrows="1" fold="1" page="1" pageScale="1" pageWidth="850" pageHeight="1100" background="none" math="0" shadow="0">
      <root>
        <mxCell id="0" />
        <mxCell id="1" parent="0" />
        <mxCell id="WtSMKF77AdU1jD58VCQP-2" value="" style="edgeStyle=none;curved=1;rounded=0;orthogonalLoop=1;jettySize=auto;html=1;fontSize=12;startSize=8;endSize=8;" parent="1" source="8Y-29Jd5Yy1vmLtRVxgS-1" target="WtSMKF77AdU1jD58VCQP-1" edge="1">
          <mxGeometry relative="1" as="geometry" />
        </mxCell>
        <mxCell id="8Y-29Jd5Yy1vmLtRVxgS-1" value="Start" style="strokeWidth=2;html=1;shape=mxgraph.flowchart.terminator;whiteSpace=wrap;" parent="1" vertex="1">
          <mxGeometry x="360" y="60" width="100" height="60" as="geometry" />
        </mxCell>
        <mxCell id="WtSMKF77AdU1jD58VCQP-4" value="" style="edgeStyle=none;curved=1;rounded=0;orthogonalLoop=1;jettySize=auto;html=1;fontSize=12;startSize=8;endSize=8;" parent="1" source="WtSMKF77AdU1jD58VCQP-1" target="WtSMKF77AdU1jD58VCQP-3" edge="1">
          <mxGeometry relative="1" as="geometry" />
        </mxCell>
        <mxCell id="WtSMKF77AdU1jD58VCQP-1" value="Menu utama&lt;div&gt;1. Register&lt;/div&gt;&lt;div&gt;2. Login&lt;/div&gt;&lt;div&gt;3. keluar&lt;/div&gt;" style="shape=parallelogram;perimeter=parallelogramPerimeter;whiteSpace=wrap;html=1;fixedSize=1;strokeWidth=2;" parent="1" vertex="1">
          <mxGeometry x="350" y="170" width="120" height="60" as="geometry" />
        </mxCell>
        <mxCell id="WtSMKF77AdU1jD58VCQP-8" value="" style="edgeStyle=none;curved=1;rounded=0;orthogonalLoop=1;jettySize=auto;html=1;fontSize=12;startSize=8;endSize=8;" parent="1" source="WtSMKF77AdU1jD58VCQP-3" target="WtSMKF77AdU1jD58VCQP-7" edge="1">
          <mxGeometry relative="1" as="geometry" />
        </mxCell>
        <mxCell id="WtSMKF77AdU1jD58VCQP-3" value="Pilih menu (1-3):&amp;nbsp;" style="shape=parallelogram;perimeter=parallelogramPerimeter;whiteSpace=wrap;html=1;fixedSize=1;strokeWidth=2;" parent="1" vertex="1">
          <mxGeometry x="350" y="280" width="120" height="60" as="geometry" />
        </mxCell>
        <mxCell id="WtSMKF77AdU1jD58VCQP-5" value="" style="endArrow=classic;html=1;rounded=0;fontSize=12;startSize=8;endSize=8;curved=1;" parent="1" edge="1">
          <mxGeometry width="50" height="50" relative="1" as="geometry">
            <mxPoint x="440" y="220" as="sourcePoint" />
            <mxPoint x="480" y="220" as="targetPoint" />
          </mxGeometry>
        </mxCell>
        <mxCell id="WtSMKF77AdU1jD58VCQP-6" value="" style="endArrow=classic;html=1;rounded=0;fontSize=12;startSize=8;endSize=8;curved=1;" parent="1" edge="1">
          <mxGeometry width="50" height="50" relative="1" as="geometry">
            <mxPoint x="340" y="290" as="sourcePoint" />
            <mxPoint x="390" y="290" as="targetPoint" />
          </mxGeometry>
        </mxCell>
        <mxCell id="WtSMKF77AdU1jD58VCQP-47" value="" style="edgeStyle=none;curved=1;rounded=0;orthogonalLoop=1;jettySize=auto;html=1;fontSize=12;startSize=8;endSize=8;" parent="1" source="WtSMKF77AdU1jD58VCQP-7" target="WtSMKF77AdU1jD58VCQP-46" edge="1">
          <mxGeometry relative="1" as="geometry" />
        </mxCell>
        <mxCell id="NOP7SX9Yuh0bbPV9pfLD-3" value="" style="edgeStyle=orthogonalEdgeStyle;rounded=0;orthogonalLoop=1;jettySize=auto;html=1;" parent="1" source="WtSMKF77AdU1jD58VCQP-7" target="NOP7SX9Yuh0bbPV9pfLD-2" edge="1">
          <mxGeometry relative="1" as="geometry" />
        </mxCell>
        <mxCell id="WtSMKF77AdU1jD58VCQP-7" value="pilihan&lt;div&gt;== 1&lt;/div&gt;" style="rhombus;whiteSpace=wrap;html=1;strokeWidth=2;" parent="1" vertex="1">
          <mxGeometry x="370" y="370" width="80" height="80" as="geometry" />
        </mxCell>
        <mxCell id="WtSMKF77AdU1jD58VCQP-51" value="" style="edgeStyle=none;curved=1;rounded=0;orthogonalLoop=1;jettySize=auto;html=1;fontSize=12;startSize=8;endSize=8;" parent="1" source="WtSMKF77AdU1jD58VCQP-46" target="eLRa3TU9Jxvd6dPgThX7-3" edge="1">
          <mxGeometry relative="1" as="geometry">
            <mxPoint x="260" y="510" as="targetPoint" />
          </mxGeometry>
        </mxCell>
        <mxCell id="WtSMKF77AdU1jD58VCQP-72" value="" style="edgeStyle=none;curved=1;rounded=0;orthogonalLoop=1;jettySize=auto;html=1;fontSize=12;startSize=8;endSize=8;" parent="1" source="WtSMKF77AdU1jD58VCQP-46" target="WtSMKF77AdU1jD58VCQP-71" edge="1">
          <mxGeometry relative="1" as="geometry" />
        </mxCell>
        <mxCell id="WtSMKF77AdU1jD58VCQP-46" value="pilihan&lt;div&gt;== 2&lt;/div&gt;" style="rhombus;whiteSpace=wrap;html=1;strokeWidth=2;" parent="1" vertex="1">
          <mxGeometry x="220" y="371" width="80" height="80" as="geometry" />
        </mxCell>
        <mxCell id="WtSMKF77AdU1jD58VCQP-48" value="False" style="text;html=1;align=center;verticalAlign=middle;resizable=0;points=[];autosize=1;strokeColor=none;fillColor=none;fontSize=16;" parent="1" vertex="1">
          <mxGeometry x="310" y="381" width="60" height="30" as="geometry" />
        </mxCell>
        <mxCell id="WtSMKF77AdU1jD58VCQP-70" value="True" style="text;html=1;align=center;verticalAlign=middle;resizable=0;points=[];autosize=1;strokeColor=none;fillColor=none;fontSize=16;" parent="1" vertex="1">
          <mxGeometry x="258.5" y="454.5" width="60" height="30" as="geometry" />
        </mxCell>
        <mxCell id="WtSMKF77AdU1jD58VCQP-76" value="" style="edgeStyle=none;curved=1;rounded=0;orthogonalLoop=1;jettySize=auto;html=1;fontSize=12;startSize=8;endSize=8;" parent="1" source="WtSMKF77AdU1jD58VCQP-71" target="WtSMKF77AdU1jD58VCQP-74" edge="1">
          <mxGeometry relative="1" as="geometry" />
        </mxCell>
        <mxCell id="WtSMKF77AdU1jD58VCQP-82" value="" style="edgeStyle=none;curved=1;rounded=0;orthogonalLoop=1;jettySize=auto;html=1;fontSize=12;startSize=8;endSize=8;" parent="1" source="WtSMKF77AdU1jD58VCQP-71" target="WtSMKF77AdU1jD58VCQP-80" edge="1">
          <mxGeometry relative="1" as="geometry" />
        </mxCell>
        <mxCell id="WtSMKF77AdU1jD58VCQP-71" value="pilihan&lt;div&gt;== 3&lt;/div&gt;" style="rhombus;whiteSpace=wrap;html=1;strokeWidth=2;" parent="1" vertex="1">
          <mxGeometry x="60" y="371" width="80" height="80" as="geometry" />
        </mxCell>
        <mxCell id="WtSMKF77AdU1jD58VCQP-73" value="False" style="text;html=1;align=center;verticalAlign=middle;resizable=0;points=[];autosize=1;strokeColor=none;fillColor=none;fontSize=16;" parent="1" vertex="1">
          <mxGeometry x="165" y="380" width="60" height="30" as="geometry" />
        </mxCell>
        <mxCell id="WtSMKF77AdU1jD58VCQP-74" value="Terima kasih telah&lt;div&gt;menggunakan&lt;/div&gt;&lt;div&gt;program&lt;/div&gt;" style="shape=parallelogram;perimeter=parallelogramPerimeter;whiteSpace=wrap;html=1;fixedSize=1;strokeWidth=2;" parent="1" vertex="1">
          <mxGeometry x="30" y="505" width="140" height="70" as="geometry" />
        </mxCell>
        <mxCell id="WtSMKF77AdU1jD58VCQP-75" value="" style="endArrow=classic;html=1;rounded=0;fontSize=12;startSize=8;endSize=8;curved=1;" parent="1" edge="1">
          <mxGeometry width="50" height="50" relative="1" as="geometry">
            <mxPoint x="140" y="568.46" as="sourcePoint" />
            <mxPoint x="180" y="568.46" as="targetPoint" />
          </mxGeometry>
        </mxCell>
        <mxCell id="WtSMKF77AdU1jD58VCQP-77" value="True" style="text;html=1;align=center;verticalAlign=middle;resizable=0;points=[];autosize=1;strokeColor=none;fillColor=none;fontSize=16;" parent="1" vertex="1">
          <mxGeometry x="105" y="460" width="60" height="30" as="geometry" />
        </mxCell>
        <mxCell id="WtSMKF77AdU1jD58VCQP-80" value="Pilihan tidak valid&lt;div&gt;coba lagi&lt;/div&gt;" style="shape=parallelogram;perimeter=parallelogramPerimeter;whiteSpace=wrap;html=1;fixedSize=1;strokeWidth=2;" parent="1" vertex="1">
          <mxGeometry x="-160" y="378.5" width="130" height="65" as="geometry" />
        </mxCell>
        <mxCell id="WtSMKF77AdU1jD58VCQP-81" value="" style="endArrow=classic;html=1;rounded=0;fontSize=12;startSize=8;endSize=8;curved=1;" parent="1" edge="1">
          <mxGeometry width="50" height="50" relative="1" as="geometry">
            <mxPoint x="-60" y="430" as="sourcePoint" />
            <mxPoint x="-20" y="430" as="targetPoint" />
          </mxGeometry>
        </mxCell>
        <mxCell id="WtSMKF77AdU1jD58VCQP-84" value="False" style="text;html=1;align=center;verticalAlign=middle;resizable=0;points=[];autosize=1;strokeColor=none;fillColor=none;fontSize=16;" parent="1" vertex="1">
          <mxGeometry y="378.5" width="60" height="30" as="geometry" />
        </mxCell>
        <mxCell id="WtSMKF77AdU1jD58VCQP-100" value="" style="edgeStyle=none;curved=1;rounded=0;orthogonalLoop=1;jettySize=auto;html=1;fontSize=12;startSize=8;endSize=8;" parent="1" source="WtSMKF77AdU1jD58VCQP-95" target="WtSMKF77AdU1jD58VCQP-98" edge="1">
          <mxGeometry relative="1" as="geometry" />
        </mxCell>
        <mxCell id="WtSMKF77AdU1jD58VCQP-160" value="" style="edgeStyle=none;curved=1;rounded=0;orthogonalLoop=1;jettySize=auto;html=1;fontSize=12;startSize=8;endSize=8;" parent="1" source="WtSMKF77AdU1jD58VCQP-95" target="WtSMKF77AdU1jD58VCQP-158" edge="1">
          <mxGeometry relative="1" as="geometry" />
        </mxCell>
        <mxCell id="WtSMKF77AdU1jD58VCQP-95" value="username dan&lt;div&gt;password sama dengan&amp;nbsp;&lt;/div&gt;&lt;div&gt;yg&amp;nbsp;&lt;span style=&quot;background-color: initial;&quot;&gt;ada di dalam daftar pengguna&lt;/span&gt;&lt;/div&gt;" style="rhombus;whiteSpace=wrap;html=1;strokeWidth=2;" parent="1" vertex="1">
          <mxGeometry x="185" y="656" width="150" height="170" as="geometry" />
        </mxCell>
        <mxCell id="WtSMKF77AdU1jD58VCQP-98" value="Login gagal&lt;div&gt;username atau&amp;nbsp;&lt;/div&gt;&lt;div&gt;password salah&lt;/div&gt;" style="shape=parallelogram;perimeter=parallelogramPerimeter;whiteSpace=wrap;html=1;fixedSize=1;strokeWidth=2;" parent="1" vertex="1">
          <mxGeometry x="393.5" y="705" width="140" height="70" as="geometry" />
        </mxCell>
        <mxCell id="WtSMKF77AdU1jD58VCQP-99" value="" style="endArrow=classic;html=1;rounded=0;fontSize=12;startSize=8;endSize=8;curved=1;" parent="1" edge="1">
          <mxGeometry width="50" height="50" relative="1" as="geometry">
            <mxPoint x="503.5" y="768.46" as="sourcePoint" />
            <mxPoint x="543.5" y="768.46" as="targetPoint" />
          </mxGeometry>
        </mxCell>
        <mxCell id="WtSMKF77AdU1jD58VCQP-101" value="False" style="text;html=1;align=center;verticalAlign=middle;resizable=0;points=[];autosize=1;strokeColor=none;fillColor=none;fontSize=16;" parent="1" vertex="1">
          <mxGeometry x="337.5" y="710" width="60" height="30" as="geometry" />
        </mxCell>
        <mxCell id="WtSMKF77AdU1jD58VCQP-150" value="" style="endArrow=classic;html=1;rounded=0;fontSize=12;startSize=8;endSize=8;curved=1;entryX=1;entryY=0.5;entryDx=0;entryDy=0;" parent="1" target="WtSMKF77AdU1jD58VCQP-1" edge="1">
          <mxGeometry width="50" height="50" relative="1" as="geometry">
            <mxPoint x="1160" y="200" as="sourcePoint" />
            <mxPoint x="1200" y="160" as="targetPoint" />
          </mxGeometry>
        </mxCell>
        <mxCell id="WtSMKF77AdU1jD58VCQP-151" value="" style="endArrow=none;html=1;rounded=0;fontSize=12;startSize=8;endSize=8;curved=1;" parent="1" edge="1">
          <mxGeometry width="50" height="50" relative="1" as="geometry">
            <mxPoint x="1160" y="800" as="sourcePoint" />
            <mxPoint x="1160" y="200" as="targetPoint" />
          </mxGeometry>
        </mxCell>
        <mxCell id="WtSMKF77AdU1jD58VCQP-163" value="" style="edgeStyle=none;curved=1;rounded=0;orthogonalLoop=1;jettySize=auto;html=1;fontSize=12;startSize=8;endSize=8;" parent="1" source="WtSMKF77AdU1jD58VCQP-158" target="WtSMKF77AdU1jD58VCQP-162" edge="1">
          <mxGeometry relative="1" as="geometry" />
        </mxCell>
        <mxCell id="WtSMKF77AdU1jD58VCQP-158" value="Login berhasil&lt;div&gt;beserta rolenya&lt;/div&gt;" style="shape=parallelogram;perimeter=parallelogramPerimeter;whiteSpace=wrap;html=1;fixedSize=1;strokeWidth=2;" parent="1" vertex="1">
          <mxGeometry x="203.5" y="875" width="120" height="60" as="geometry" />
        </mxCell>
        <mxCell id="WtSMKF77AdU1jD58VCQP-159" value="" style="endArrow=classic;html=1;rounded=0;fontSize=12;startSize=8;endSize=8;curved=1;" parent="1" edge="1">
          <mxGeometry width="50" height="50" relative="1" as="geometry">
            <mxPoint x="293.5" y="930" as="sourcePoint" />
            <mxPoint x="333.5" y="930" as="targetPoint" />
          </mxGeometry>
        </mxCell>
        <mxCell id="WtSMKF77AdU1jD58VCQP-161" value="True" style="text;html=1;align=center;verticalAlign=middle;resizable=0;points=[];autosize=1;strokeColor=none;fillColor=none;fontSize=16;" parent="1" vertex="1">
          <mxGeometry x="257.5" y="826" width="60" height="30" as="geometry" />
        </mxCell>
        <mxCell id="WtSMKF77AdU1jD58VCQP-166" value="" style="edgeStyle=none;curved=1;rounded=0;orthogonalLoop=1;jettySize=auto;html=1;fontSize=12;startSize=8;endSize=8;entryX=0;entryY=0.5;entryDx=0;entryDy=0;" parent="1" source="WtSMKF77AdU1jD58VCQP-162" target="eLRa3TU9Jxvd6dPgThX7-180" edge="1">
          <mxGeometry relative="1" as="geometry">
            <mxPoint x="447.5000000000009" y="1030" as="targetPoint" />
          </mxGeometry>
        </mxCell>
        <mxCell id="eLRa3TU9Jxvd6dPgThX7-183" value="" style="edgeStyle=orthogonalEdgeStyle;rounded=0;orthogonalLoop=1;jettySize=auto;html=1;" parent="1" source="WtSMKF77AdU1jD58VCQP-162" target="eLRa3TU9Jxvd6dPgThX7-182" edge="1">
          <mxGeometry relative="1" as="geometry" />
        </mxCell>
        <mxCell id="WtSMKF77AdU1jD58VCQP-162" value="role == admin" style="rhombus;whiteSpace=wrap;html=1;strokeWidth=2;" parent="1" vertex="1">
          <mxGeometry x="218.5" y="985" width="90" height="90" as="geometry" />
        </mxCell>
        <mxCell id="WtSMKF77AdU1jD58VCQP-167" value="False" style="text;html=1;align=center;verticalAlign=middle;resizable=0;points=[];autosize=1;strokeColor=none;fillColor=none;fontSize=16;" parent="1" vertex="1">
          <mxGeometry x="317.5" y="1006" width="60" height="30" as="geometry" />
        </mxCell>
        <mxCell id="WtSMKF77AdU1jD58VCQP-187" value="" style="edgeStyle=none;curved=1;rounded=0;orthogonalLoop=1;jettySize=auto;html=1;fontSize=12;startSize=8;endSize=8;" parent="1" edge="1">
          <mxGeometry relative="1" as="geometry">
            <mxPoint x="1160" y="743" as="targetPoint" />
            <mxPoint x="1160" y="1033" as="sourcePoint" />
          </mxGeometry>
        </mxCell>
        <mxCell id="WtSMKF77AdU1jD58VCQP-199" value="" style="endArrow=none;html=1;rounded=0;fontSize=12;startSize=8;endSize=8;curved=1;" parent="1" edge="1">
          <mxGeometry width="50" height="50" relative="1" as="geometry">
            <mxPoint x="-90" y="380" as="sourcePoint" />
            <mxPoint x="-90" y="200" as="targetPoint" />
          </mxGeometry>
        </mxCell>
        <mxCell id="WtSMKF77AdU1jD58VCQP-200" value="" style="endArrow=classic;html=1;rounded=0;fontSize=12;startSize=8;endSize=8;curved=1;entryX=0;entryY=0.5;entryDx=0;entryDy=0;" parent="1" target="WtSMKF77AdU1jD58VCQP-1" edge="1">
          <mxGeometry width="50" height="50" relative="1" as="geometry">
            <mxPoint x="-90" y="200" as="sourcePoint" />
            <mxPoint x="-40" y="150" as="targetPoint" />
          </mxGeometry>
        </mxCell>
        <mxCell id="WtSMKF77AdU1jD58VCQP-387" value="" style="endArrow=classic;html=1;rounded=0;fontSize=12;startSize=8;endSize=8;curved=1;exitX=1;exitY=0.5;exitDx=0;exitDy=0;" parent="1" source="WtSMKF77AdU1jD58VCQP-98" edge="1">
          <mxGeometry width="50" height="50" relative="1" as="geometry">
            <mxPoint x="670" y="743" as="sourcePoint" />
            <mxPoint x="1160" y="743" as="targetPoint" />
          </mxGeometry>
        </mxCell>
        <mxCell id="WtSMKF77AdU1jD58VCQP-388" value="" style="endArrow=classic;html=1;rounded=0;fontSize=12;startSize=8;endSize=8;curved=1;" parent="1" edge="1">
          <mxGeometry width="50" height="50" relative="1" as="geometry">
            <mxPoint x="1160" y="260" as="sourcePoint" />
            <mxPoint x="1160" y="200" as="targetPoint" />
          </mxGeometry>
        </mxCell>
        <mxCell id="WtSMKF77AdU1jD58VCQP-393" value="" style="endArrow=classic;html=1;rounded=0;fontSize=12;startSize=8;endSize=8;curved=1;entryX=0.5;entryY=0;entryDx=0;entryDy=0;entryPerimeter=0;exitX=0.5;exitY=1;exitDx=0;exitDy=0;" parent="1" source="WtSMKF77AdU1jD58VCQP-74" target="WtSMKF77AdU1jD58VCQP-394" edge="1">
          <mxGeometry width="50" height="50" relative="1" as="geometry">
            <mxPoint x="-100" y="540" as="sourcePoint" />
            <mxPoint x="-100" y="2120" as="targetPoint" />
          </mxGeometry>
        </mxCell>
        <mxCell id="WtSMKF77AdU1jD58VCQP-394" value="End" style="strokeWidth=2;html=1;shape=mxgraph.flowchart.terminator;whiteSpace=wrap;" parent="1" vertex="1">
          <mxGeometry x="50" y="1200" width="100" height="60" as="geometry" />
        </mxCell>
        <mxCell id="NOP7SX9Yuh0bbPV9pfLD-2" value="input_valid&lt;div&gt;(username)&lt;/div&gt;" style="shape=process;whiteSpace=wrap;html=1;backgroundOutline=1;strokeWidth=2;" parent="1" vertex="1">
          <mxGeometry x="488" y="385" width="90" height="50" as="geometry" />
        </mxCell>
        <mxCell id="NOP7SX9Yuh0bbPV9pfLD-4" value="True" style="text;html=1;align=center;verticalAlign=middle;resizable=0;points=[];autosize=1;strokeColor=none;fillColor=none;" parent="1" vertex="1">
          <mxGeometry x="438" y="378.5" width="50" height="30" as="geometry" />
        </mxCell>
        <mxCell id="NOP7SX9Yuh0bbPV9pfLD-52" value="" style="edgeStyle=orthogonalEdgeStyle;rounded=0;orthogonalLoop=1;jettySize=auto;html=1;" parent="1" source="NOP7SX9Yuh0bbPV9pfLD-50" target="NOP7SX9Yuh0bbPV9pfLD-51" edge="1">
          <mxGeometry relative="1" as="geometry" />
        </mxCell>
        <mxCell id="NOP7SX9Yuh0bbPV9pfLD-50" value="input_valid(pesan)" style="shape=process;whiteSpace=wrap;html=1;backgroundOutline=1;strokeWidth=2;" parent="1" vertex="1">
          <mxGeometry x="-604" y="195" width="136" height="65" as="geometry" />
        </mxCell>
        <mxCell id="NOP7SX9Yuh0bbPV9pfLD-55" value="" style="edgeStyle=orthogonalEdgeStyle;rounded=0;orthogonalLoop=1;jettySize=auto;html=1;" parent="1" source="NOP7SX9Yuh0bbPV9pfLD-51" target="NOP7SX9Yuh0bbPV9pfLD-53" edge="1">
          <mxGeometry relative="1" as="geometry" />
        </mxCell>
        <mxCell id="NOP7SX9Yuh0bbPV9pfLD-51" value="Start" style="strokeWidth=2;html=1;shape=mxgraph.flowchart.terminator;whiteSpace=wrap;" parent="1" vertex="1">
          <mxGeometry x="-586" y="315" width="100" height="60" as="geometry" />
        </mxCell>
        <mxCell id="UezKkUueuSIgXUtP9DaV-20" value="" style="edgeStyle=orthogonalEdgeStyle;rounded=0;orthogonalLoop=1;jettySize=auto;html=1;" edge="1" parent="1" source="NOP7SX9Yuh0bbPV9pfLD-53" target="NOP7SX9Yuh0bbPV9pfLD-60">
          <mxGeometry relative="1" as="geometry" />
        </mxCell>
        <mxCell id="NOP7SX9Yuh0bbPV9pfLD-53" value="pesan" style="shape=parallelogram;perimeter=parallelogramPerimeter;whiteSpace=wrap;html=1;fixedSize=1;strokeWidth=2;" parent="1" vertex="1">
          <mxGeometry x="-596" y="425" width="120" height="60" as="geometry" />
        </mxCell>
        <mxCell id="NOP7SX9Yuh0bbPV9pfLD-54" value="" style="endArrow=classic;html=1;rounded=0;fontSize=12;startSize=8;endSize=8;curved=1;" parent="1" edge="1">
          <mxGeometry width="50" height="50" relative="1" as="geometry">
            <mxPoint x="-596" y="435" as="sourcePoint" />
            <mxPoint x="-546" y="435" as="targetPoint" />
          </mxGeometry>
        </mxCell>
        <mxCell id="NOP7SX9Yuh0bbPV9pfLD-64" value="" style="edgeStyle=orthogonalEdgeStyle;rounded=0;orthogonalLoop=1;jettySize=auto;html=1;" parent="1" source="NOP7SX9Yuh0bbPV9pfLD-60" target="NOP7SX9Yuh0bbPV9pfLD-62" edge="1">
          <mxGeometry relative="1" as="geometry" />
        </mxCell>
        <mxCell id="NOP7SX9Yuh0bbPV9pfLD-71" value="" style="edgeStyle=orthogonalEdgeStyle;rounded=0;orthogonalLoop=1;jettySize=auto;html=1;" parent="1" source="NOP7SX9Yuh0bbPV9pfLD-60" target="NOP7SX9Yuh0bbPV9pfLD-70" edge="1">
          <mxGeometry relative="1" as="geometry" />
        </mxCell>
        <mxCell id="NOP7SX9Yuh0bbPV9pfLD-60" value="tidak ada&lt;div&gt;inputan&lt;/div&gt;" style="rhombus;whiteSpace=wrap;html=1;strokeWidth=2;" parent="1" vertex="1">
          <mxGeometry x="-578" y="534.49" width="84" height="80" as="geometry" />
        </mxCell>
        <mxCell id="NOP7SX9Yuh0bbPV9pfLD-62" value="input tidak&amp;nbsp;&lt;div&gt;boleh&amp;nbsp;&lt;span style=&quot;background-color: initial;&quot;&gt;kosong&lt;/span&gt;&lt;/div&gt;" style="shape=parallelogram;perimeter=parallelogramPerimeter;whiteSpace=wrap;html=1;fixedSize=1;strokeWidth=2;" parent="1" vertex="1">
          <mxGeometry x="-446" y="544.49" width="120" height="60" as="geometry" />
        </mxCell>
        <mxCell id="NOP7SX9Yuh0bbPV9pfLD-63" value="" style="endArrow=classic;html=1;rounded=0;fontSize=12;startSize=8;endSize=8;curved=1;" parent="1" edge="1">
          <mxGeometry width="50" height="50" relative="1" as="geometry">
            <mxPoint x="-356" y="597.49" as="sourcePoint" />
            <mxPoint x="-316" y="597.49" as="targetPoint" />
          </mxGeometry>
        </mxCell>
        <mxCell id="NOP7SX9Yuh0bbPV9pfLD-65" value="" style="endArrow=none;html=1;rounded=0;" parent="1" edge="1">
          <mxGeometry width="50" height="50" relative="1" as="geometry">
            <mxPoint x="-386" y="540" as="sourcePoint" />
            <mxPoint x="-386" y="235" as="targetPoint" />
          </mxGeometry>
        </mxCell>
        <mxCell id="NOP7SX9Yuh0bbPV9pfLD-67" value="" style="endArrow=classic;html=1;rounded=0;" parent="1" edge="1">
          <mxGeometry width="50" height="50" relative="1" as="geometry">
            <mxPoint x="-386" y="235" as="sourcePoint" />
            <mxPoint x="-466" y="235" as="targetPoint" />
          </mxGeometry>
        </mxCell>
        <mxCell id="NOP7SX9Yuh0bbPV9pfLD-68" value="True" style="text;html=1;align=center;verticalAlign=middle;resizable=0;points=[];autosize=1;strokeColor=none;fillColor=none;" parent="1" vertex="1">
          <mxGeometry x="-496" y="544.49" width="50" height="30" as="geometry" />
        </mxCell>
        <mxCell id="eLRa3TU9Jxvd6dPgThX7-2" value="" style="edgeStyle=orthogonalEdgeStyle;rounded=0;orthogonalLoop=1;jettySize=auto;html=1;" parent="1" source="NOP7SX9Yuh0bbPV9pfLD-70" target="eLRa3TU9Jxvd6dPgThX7-1" edge="1">
          <mxGeometry relative="1" as="geometry" />
        </mxCell>
        <mxCell id="NOP7SX9Yuh0bbPV9pfLD-70" value="mengembalikan&lt;div&gt;inputan&lt;/div&gt;" style="whiteSpace=wrap;html=1;strokeWidth=2;" parent="1" vertex="1">
          <mxGeometry x="-760" y="544.49" width="120" height="60" as="geometry" />
        </mxCell>
        <mxCell id="NOP7SX9Yuh0bbPV9pfLD-72" value="False" style="text;html=1;align=center;verticalAlign=middle;resizable=0;points=[];autosize=1;strokeColor=none;fillColor=none;" parent="1" vertex="1">
          <mxGeometry x="-631" y="545.49" width="50" height="30" as="geometry" />
        </mxCell>
        <mxCell id="NOP7SX9Yuh0bbPV9pfLD-77" value="" style="edgeStyle=orthogonalEdgeStyle;rounded=0;orthogonalLoop=1;jettySize=auto;html=1;" parent="1" source="NOP7SX9Yuh0bbPV9pfLD-73" target="NOP7SX9Yuh0bbPV9pfLD-75" edge="1">
          <mxGeometry relative="1" as="geometry" />
        </mxCell>
        <mxCell id="UezKkUueuSIgXUtP9DaV-37" value="" style="edgeStyle=orthogonalEdgeStyle;rounded=0;orthogonalLoop=1;jettySize=auto;html=1;" edge="1" parent="1" source="NOP7SX9Yuh0bbPV9pfLD-73" target="NOP7SX9Yuh0bbPV9pfLD-79">
          <mxGeometry relative="1" as="geometry" />
        </mxCell>
        <mxCell id="NOP7SX9Yuh0bbPV9pfLD-73" value="username&lt;div&gt;ada di daftar&lt;/div&gt;&lt;div&gt;pengguna&lt;/div&gt;" style="rhombus;whiteSpace=wrap;html=1;strokeWidth=2;" parent="1" vertex="1">
          <mxGeometry x="722.5" y="364.5" width="100" height="90" as="geometry" />
        </mxCell>
        <mxCell id="NOP7SX9Yuh0bbPV9pfLD-75" value="username sudah&lt;div&gt;terdaftar&lt;/div&gt;" style="shape=parallelogram;perimeter=parallelogramPerimeter;whiteSpace=wrap;html=1;fixedSize=1;strokeWidth=2;" parent="1" vertex="1">
          <mxGeometry x="712.5" y="495.5" width="120" height="60" as="geometry" />
        </mxCell>
        <mxCell id="NOP7SX9Yuh0bbPV9pfLD-76" value="" style="endArrow=classic;html=1;rounded=0;fontSize=12;startSize=8;endSize=8;curved=1;" parent="1" edge="1">
          <mxGeometry width="50" height="50" relative="1" as="geometry">
            <mxPoint x="806" y="549.5899999999999" as="sourcePoint" />
            <mxPoint x="846" y="549.5899999999999" as="targetPoint" />
          </mxGeometry>
        </mxCell>
        <mxCell id="NOP7SX9Yuh0bbPV9pfLD-78" value="" style="edgeStyle=none;curved=1;rounded=0;orthogonalLoop=1;jettySize=auto;html=1;fontSize=12;startSize=8;endSize=8;" parent="1" source="NOP7SX9Yuh0bbPV9pfLD-79" target="NOP7SX9Yuh0bbPV9pfLD-80" edge="1">
          <mxGeometry relative="1" as="geometry" />
        </mxCell>
        <mxCell id="NOP7SX9Yuh0bbPV9pfLD-79" value="username, password,&lt;div&gt;akan masuk ke&lt;/div&gt;&lt;div&gt;daftar pengguna&lt;/div&gt;&lt;div&gt;dengan role user&lt;/div&gt;" style="whiteSpace=wrap;html=1;strokeWidth=2;" parent="1" vertex="1">
          <mxGeometry x="870" y="379.5" width="120" height="60" as="geometry" />
        </mxCell>
        <mxCell id="NOP7SX9Yuh0bbPV9pfLD-80" value="Registrasi&lt;div&gt;berhasil&lt;/div&gt;" style="shape=parallelogram;perimeter=parallelogramPerimeter;whiteSpace=wrap;html=1;fixedSize=1;strokeWidth=2;" parent="1" vertex="1">
          <mxGeometry x="1010" y="379.5" width="120" height="60" as="geometry" />
        </mxCell>
        <mxCell id="NOP7SX9Yuh0bbPV9pfLD-81" value="" style="endArrow=classic;html=1;rounded=0;fontSize=12;startSize=8;endSize=8;curved=1;" parent="1" edge="1">
          <mxGeometry width="50" height="50" relative="1" as="geometry">
            <mxPoint x="1100" y="434.5" as="sourcePoint" />
            <mxPoint x="1140" y="434.5" as="targetPoint" />
          </mxGeometry>
        </mxCell>
        <mxCell id="NOP7SX9Yuh0bbPV9pfLD-82" style="edgeStyle=none;curved=1;rounded=0;orthogonalLoop=1;jettySize=auto;html=1;exitX=0.5;exitY=1;exitDx=0;exitDy=0;fontSize=12;startSize=8;endSize=8;" parent="1" source="NOP7SX9Yuh0bbPV9pfLD-79" target="NOP7SX9Yuh0bbPV9pfLD-79" edge="1">
          <mxGeometry relative="1" as="geometry" />
        </mxCell>
        <mxCell id="NOP7SX9Yuh0bbPV9pfLD-84" value="True" style="text;html=1;align=center;verticalAlign=middle;resizable=0;points=[];autosize=1;strokeColor=none;fillColor=none;" parent="1" vertex="1">
          <mxGeometry x="776.5" y="454.5" width="50" height="30" as="geometry" />
        </mxCell>
        <mxCell id="NOP7SX9Yuh0bbPV9pfLD-85" value="False" style="text;html=1;align=center;verticalAlign=middle;resizable=0;points=[];autosize=1;strokeColor=none;fillColor=none;" parent="1" vertex="1">
          <mxGeometry x="820" y="381" width="50" height="30" as="geometry" />
        </mxCell>
        <mxCell id="NOP7SX9Yuh0bbPV9pfLD-86" value="" style="endArrow=classic;html=1;rounded=0;" parent="1" edge="1">
          <mxGeometry width="50" height="50" relative="1" as="geometry">
            <mxPoint x="820" y="530" as="sourcePoint" />
            <mxPoint x="1160" y="530" as="targetPoint" />
          </mxGeometry>
        </mxCell>
        <mxCell id="NOP7SX9Yuh0bbPV9pfLD-87" value="" style="endArrow=classic;html=1;rounded=0;" parent="1" edge="1">
          <mxGeometry width="50" height="50" relative="1" as="geometry">
            <mxPoint x="1120" y="410" as="sourcePoint" />
            <mxPoint x="1160" y="410" as="targetPoint" />
          </mxGeometry>
        </mxCell>
        <mxCell id="NOP7SX9Yuh0bbPV9pfLD-88" value="" style="endArrow=classic;html=1;rounded=0;" parent="1" edge="1">
          <mxGeometry width="50" height="50" relative="1" as="geometry">
            <mxPoint x="1160" y="620" as="sourcePoint" />
            <mxPoint x="1160" y="530" as="targetPoint" />
          </mxGeometry>
        </mxCell>
        <mxCell id="NOP7SX9Yuh0bbPV9pfLD-89" value="" style="endArrow=classic;html=1;rounded=0;" parent="1" edge="1">
          <mxGeometry width="50" height="50" relative="1" as="geometry">
            <mxPoint x="1160" y="490" as="sourcePoint" />
            <mxPoint x="1160" y="410" as="targetPoint" />
          </mxGeometry>
        </mxCell>
        <mxCell id="eLRa3TU9Jxvd6dPgThX7-1" value="End" style="strokeWidth=2;html=1;shape=mxgraph.flowchart.terminator;whiteSpace=wrap;" parent="1" vertex="1">
          <mxGeometry x="-750" y="647.49" width="100" height="60" as="geometry" />
        </mxCell>
        <mxCell id="eLRa3TU9Jxvd6dPgThX7-3" value="input_valid&lt;div&gt;(username)&lt;/div&gt;" style="shape=process;whiteSpace=wrap;html=1;backgroundOutline=1;strokeWidth=2;" parent="1" vertex="1">
          <mxGeometry x="215" y="495.5" width="90" height="50" as="geometry" />
        </mxCell>
        <mxCell id="eLRa3TU9Jxvd6dPgThX7-7" value="" style="edgeStyle=orthogonalEdgeStyle;rounded=0;orthogonalLoop=1;jettySize=auto;html=1;" parent="1" source="eLRa3TU9Jxvd6dPgThX7-5" target="eLRa3TU9Jxvd6dPgThX7-6" edge="1">
          <mxGeometry relative="1" as="geometry" />
        </mxCell>
        <mxCell id="eLRa3TU9Jxvd6dPgThX7-5" value="menu_admin()" style="shape=process;whiteSpace=wrap;html=1;backgroundOutline=1;strokeWidth=2;" parent="1" vertex="1">
          <mxGeometry x="-1739.5" y="200" width="120" height="70" as="geometry" />
        </mxCell>
        <mxCell id="eLRa3TU9Jxvd6dPgThX7-10" value="" style="edgeStyle=orthogonalEdgeStyle;rounded=0;orthogonalLoop=1;jettySize=auto;html=1;" parent="1" source="eLRa3TU9Jxvd6dPgThX7-6" target="eLRa3TU9Jxvd6dPgThX7-8" edge="1">
          <mxGeometry relative="1" as="geometry" />
        </mxCell>
        <mxCell id="eLRa3TU9Jxvd6dPgThX7-6" value="Start" style="strokeWidth=2;html=1;shape=mxgraph.flowchart.terminator;whiteSpace=wrap;" parent="1" vertex="1">
          <mxGeometry x="-1729.5" y="320" width="100" height="60" as="geometry" />
        </mxCell>
        <mxCell id="eLRa3TU9Jxvd6dPgThX7-13" value="" style="edgeStyle=orthogonalEdgeStyle;rounded=0;orthogonalLoop=1;jettySize=auto;html=1;" parent="1" source="eLRa3TU9Jxvd6dPgThX7-8" target="eLRa3TU9Jxvd6dPgThX7-11" edge="1">
          <mxGeometry relative="1" as="geometry" />
        </mxCell>
        <mxCell id="eLRa3TU9Jxvd6dPgThX7-8" value="Menu admin&lt;div&gt;1. Tambah pemain&lt;/div&gt;&lt;div&gt;2. Tampilkan pemain&lt;/div&gt;&lt;div&gt;3. Update pemain&lt;/div&gt;&lt;div&gt;4. Hapus pemain&lt;/div&gt;&lt;div&gt;5.Logout&lt;/div&gt;" style="shape=parallelogram;perimeter=parallelogramPerimeter;whiteSpace=wrap;html=1;fixedSize=1;strokeWidth=2;" parent="1" vertex="1">
          <mxGeometry x="-1752.5" y="420" width="145" height="90" as="geometry" />
        </mxCell>
        <mxCell id="eLRa3TU9Jxvd6dPgThX7-9" value="" style="endArrow=classic;html=1;rounded=0;fontSize=12;startSize=8;endSize=8;curved=1;" parent="1" edge="1">
          <mxGeometry width="50" height="50" relative="1" as="geometry">
            <mxPoint x="-1642.5" y="497.5" as="sourcePoint" />
            <mxPoint x="-1602.5" y="497.5" as="targetPoint" />
          </mxGeometry>
        </mxCell>
        <mxCell id="eLRa3TU9Jxvd6dPgThX7-11" value="Pilih menu&lt;div&gt;(1-5):&lt;/div&gt;" style="shape=parallelogram;perimeter=parallelogramPerimeter;whiteSpace=wrap;html=1;fixedSize=1;strokeWidth=2;" parent="1" vertex="1">
          <mxGeometry x="-1920" y="433.12" width="140" height="63.75" as="geometry" />
        </mxCell>
        <mxCell id="eLRa3TU9Jxvd6dPgThX7-12" value="" style="endArrow=classic;html=1;rounded=0;fontSize=12;startSize=8;endSize=8;curved=1;" parent="1" edge="1">
          <mxGeometry width="50" height="50" relative="1" as="geometry">
            <mxPoint x="-1930" y="443.12" as="sourcePoint" />
            <mxPoint x="-1880" y="443.12" as="targetPoint" />
          </mxGeometry>
        </mxCell>
        <mxCell id="eLRa3TU9Jxvd6dPgThX7-16" value="" style="edgeStyle=none;curved=1;rounded=0;orthogonalLoop=1;jettySize=auto;html=1;fontSize=12;startSize=8;endSize=8;" parent="1" target="eLRa3TU9Jxvd6dPgThX7-19" edge="1">
          <mxGeometry relative="1" as="geometry">
            <mxPoint x="-1855" y="500" as="sourcePoint" />
          </mxGeometry>
        </mxCell>
        <mxCell id="eLRa3TU9Jxvd6dPgThX7-17" value="" style="edgeStyle=none;curved=1;rounded=0;orthogonalLoop=1;jettySize=auto;html=1;fontSize=12;startSize=8;endSize=8;" parent="1" source="eLRa3TU9Jxvd6dPgThX7-19" edge="1">
          <mxGeometry relative="1" as="geometry">
            <mxPoint x="-1755" y="603.5" as="targetPoint" />
          </mxGeometry>
        </mxCell>
        <mxCell id="eLRa3TU9Jxvd6dPgThX7-18" value="" style="edgeStyle=none;curved=1;rounded=0;orthogonalLoop=1;jettySize=auto;html=1;fontSize=12;startSize=8;endSize=8;" parent="1" source="eLRa3TU9Jxvd6dPgThX7-19" target="eLRa3TU9Jxvd6dPgThX7-33" edge="1">
          <mxGeometry relative="1" as="geometry" />
        </mxCell>
        <mxCell id="eLRa3TU9Jxvd6dPgThX7-19" value="pilihan admin&lt;div&gt;== 1&lt;/div&gt;" style="rhombus;whiteSpace=wrap;html=1;strokeWidth=2;" parent="1" vertex="1">
          <mxGeometry x="-1905" y="551" width="100" height="105" as="geometry" />
        </mxCell>
        <mxCell id="eLRa3TU9Jxvd6dPgThX7-20" value="" style="edgeStyle=none;curved=1;rounded=0;orthogonalLoop=1;jettySize=auto;html=1;fontSize=12;startSize=8;endSize=8;" parent="1" edge="1">
          <mxGeometry relative="1" as="geometry">
            <mxPoint x="-1655.3090234857855" y="604.4270704573548" as="sourcePoint" />
            <mxPoint x="-1620.6909765142145" y="605.0729295426452" as="targetPoint" />
          </mxGeometry>
        </mxCell>
        <mxCell id="eLRa3TU9Jxvd6dPgThX7-23" value="" style="edgeStyle=none;curved=1;rounded=0;orthogonalLoop=1;jettySize=auto;html=1;fontSize=12;startSize=8;endSize=8;" parent="1" edge="1">
          <mxGeometry relative="1" as="geometry">
            <mxPoint x="-1521" y="606" as="sourcePoint" />
            <mxPoint x="-1485" y="606" as="targetPoint" />
          </mxGeometry>
        </mxCell>
        <mxCell id="eLRa3TU9Jxvd6dPgThX7-26" value="True" style="text;html=1;align=center;verticalAlign=middle;resizable=0;points=[];autosize=1;strokeColor=none;fillColor=none;fontSize=16;" parent="1" vertex="1">
          <mxGeometry x="-1821" y="571" width="60" height="30" as="geometry" />
        </mxCell>
        <mxCell id="eLRa3TU9Jxvd6dPgThX7-27" value="" style="edgeStyle=none;curved=1;rounded=0;orthogonalLoop=1;jettySize=auto;html=1;fontSize=12;startSize=8;endSize=8;entryX=0.5;entryY=0;entryDx=0;entryDy=0;entryPerimeter=0;" parent="1" edge="1">
          <mxGeometry relative="1" as="geometry">
            <mxPoint x="-1433.5" y="656" as="targetPoint" />
            <mxPoint x="-1434.0999999999995" y="636" as="sourcePoint" />
          </mxGeometry>
        </mxCell>
        <mxCell id="eLRa3TU9Jxvd6dPgThX7-31" value="" style="edgeStyle=none;curved=1;rounded=0;orthogonalLoop=1;jettySize=auto;html=1;fontSize=12;startSize=8;endSize=8;" parent="1" source="eLRa3TU9Jxvd6dPgThX7-33" edge="1">
          <mxGeometry relative="1" as="geometry">
            <mxPoint x="-1745" y="791" as="targetPoint" />
          </mxGeometry>
        </mxCell>
        <mxCell id="eLRa3TU9Jxvd6dPgThX7-32" value="" style="edgeStyle=none;curved=1;rounded=0;orthogonalLoop=1;jettySize=auto;html=1;fontSize=12;startSize=8;endSize=8;" parent="1" source="eLRa3TU9Jxvd6dPgThX7-33" target="eLRa3TU9Jxvd6dPgThX7-39" edge="1">
          <mxGeometry relative="1" as="geometry" />
        </mxCell>
        <mxCell id="eLRa3TU9Jxvd6dPgThX7-33" value="pilihan admin&lt;div&gt;== 2&lt;/div&gt;" style="rhombus;whiteSpace=wrap;html=1;strokeWidth=2;" parent="1" vertex="1">
          <mxGeometry x="-1905" y="741" width="100" height="100" as="geometry" />
        </mxCell>
        <mxCell id="eLRa3TU9Jxvd6dPgThX7-36" value="True" style="text;html=1;align=center;verticalAlign=middle;resizable=0;points=[];autosize=1;strokeColor=none;fillColor=none;fontSize=16;" parent="1" vertex="1">
          <mxGeometry x="-1815" y="761" width="60" height="30" as="geometry" />
        </mxCell>
        <mxCell id="eLRa3TU9Jxvd6dPgThX7-37" value="" style="edgeStyle=none;curved=1;rounded=0;orthogonalLoop=1;jettySize=auto;html=1;fontSize=12;startSize=8;endSize=8;" parent="1" source="eLRa3TU9Jxvd6dPgThX7-39" edge="1">
          <mxGeometry relative="1" as="geometry">
            <mxPoint x="-1755" y="931" as="targetPoint" />
          </mxGeometry>
        </mxCell>
        <mxCell id="eLRa3TU9Jxvd6dPgThX7-38" value="" style="edgeStyle=none;curved=1;rounded=0;orthogonalLoop=1;jettySize=auto;html=1;fontSize=12;startSize=8;endSize=8;" parent="1" source="eLRa3TU9Jxvd6dPgThX7-39" target="eLRa3TU9Jxvd6dPgThX7-62" edge="1">
          <mxGeometry relative="1" as="geometry" />
        </mxCell>
        <mxCell id="eLRa3TU9Jxvd6dPgThX7-39" value="pilihan admin&lt;div&gt;== 3&lt;/div&gt;" style="rhombus;whiteSpace=wrap;html=1;strokeWidth=2;" parent="1" vertex="1">
          <mxGeometry x="-1905" y="881" width="100" height="100" as="geometry" />
        </mxCell>
        <mxCell id="eLRa3TU9Jxvd6dPgThX7-40" value="False" style="text;html=1;align=center;verticalAlign=middle;resizable=0;points=[];autosize=1;strokeColor=none;fillColor=none;fontSize=16;" parent="1" vertex="1">
          <mxGeometry x="-1855" y="841" width="60" height="30" as="geometry" />
        </mxCell>
        <mxCell id="eLRa3TU9Jxvd6dPgThX7-41" value="False" style="text;html=1;align=center;verticalAlign=middle;resizable=0;points=[];autosize=1;strokeColor=none;fillColor=none;fontSize=16;" parent="1" vertex="1">
          <mxGeometry x="-1855" y="671" width="60" height="30" as="geometry" />
        </mxCell>
        <mxCell id="eLRa3TU9Jxvd6dPgThX7-45" value="" style="edgeStyle=none;curved=1;rounded=0;orthogonalLoop=1;jettySize=auto;html=1;fontSize=12;startSize=8;endSize=8;entryX=0;entryY=0.5;entryDx=0;entryDy=0;" parent="1" edge="1">
          <mxGeometry relative="1" as="geometry">
            <mxPoint x="-1395" y="930" as="targetPoint" />
            <mxPoint x="-1439.8392732354996" y="930.4374563242488" as="sourcePoint" />
          </mxGeometry>
        </mxCell>
        <mxCell id="eLRa3TU9Jxvd6dPgThX7-60" value="" style="edgeStyle=none;curved=1;rounded=0;orthogonalLoop=1;jettySize=auto;html=1;fontSize=12;startSize=8;endSize=8;entryX=0;entryY=0.5;entryDx=0;entryDy=0;" parent="1" source="eLRa3TU9Jxvd6dPgThX7-62" edge="1">
          <mxGeometry relative="1" as="geometry">
            <mxPoint x="-1731" y="1092" as="targetPoint" />
          </mxGeometry>
        </mxCell>
        <mxCell id="eLRa3TU9Jxvd6dPgThX7-61" value="" style="edgeStyle=none;curved=1;rounded=0;orthogonalLoop=1;jettySize=auto;html=1;fontSize=12;startSize=8;endSize=8;" parent="1" source="eLRa3TU9Jxvd6dPgThX7-62" target="eLRa3TU9Jxvd6dPgThX7-64" edge="1">
          <mxGeometry relative="1" as="geometry" />
        </mxCell>
        <mxCell id="eLRa3TU9Jxvd6dPgThX7-62" value="pilihan admin&lt;div&gt;== 4&lt;/div&gt;" style="rhombus;whiteSpace=wrap;html=1;strokeWidth=2;" parent="1" vertex="1">
          <mxGeometry x="-1905" y="1042" width="100" height="100" as="geometry" />
        </mxCell>
        <mxCell id="eLRa3TU9Jxvd6dPgThX7-63" value="" style="edgeStyle=none;curved=1;rounded=0;orthogonalLoop=1;jettySize=auto;html=1;fontSize=12;startSize=8;endSize=8;" parent="1" source="eLRa3TU9Jxvd6dPgThX7-64" target="eLRa3TU9Jxvd6dPgThX7-77" edge="1">
          <mxGeometry relative="1" as="geometry" />
        </mxCell>
        <mxCell id="eLRa3TU9Jxvd6dPgThX7-127" value="" style="edgeStyle=orthogonalEdgeStyle;rounded=0;orthogonalLoop=1;jettySize=auto;html=1;" parent="1" source="eLRa3TU9Jxvd6dPgThX7-64" target="eLRa3TU9Jxvd6dPgThX7-126" edge="1">
          <mxGeometry relative="1" as="geometry" />
        </mxCell>
        <mxCell id="eLRa3TU9Jxvd6dPgThX7-64" value="pilihan admin&lt;div&gt;== 5&lt;/div&gt;" style="rhombus;whiteSpace=wrap;html=1;strokeWidth=2;" parent="1" vertex="1">
          <mxGeometry x="-1905" y="1200" width="100" height="100" as="geometry" />
        </mxCell>
        <mxCell id="eLRa3TU9Jxvd6dPgThX7-65" value="True" style="text;html=1;align=center;verticalAlign=middle;resizable=0;points=[];autosize=1;strokeColor=none;fillColor=none;fontSize=16;" parent="1" vertex="1">
          <mxGeometry x="-1821" y="902" width="60" height="30" as="geometry" />
        </mxCell>
        <mxCell id="eLRa3TU9Jxvd6dPgThX7-66" value="False" style="text;html=1;align=center;verticalAlign=middle;resizable=0;points=[];autosize=1;strokeColor=none;fillColor=none;fontSize=16;" parent="1" vertex="1">
          <mxGeometry x="-1861" y="1002" width="60" height="30" as="geometry" />
        </mxCell>
        <mxCell id="eLRa3TU9Jxvd6dPgThX7-67" value="True" style="text;html=1;align=center;verticalAlign=middle;resizable=0;points=[];autosize=1;strokeColor=none;fillColor=none;fontSize=16;" parent="1" vertex="1">
          <mxGeometry x="-1801" y="1057" width="60" height="30" as="geometry" />
        </mxCell>
        <mxCell id="eLRa3TU9Jxvd6dPgThX7-68" value="False" style="text;html=1;align=center;verticalAlign=middle;resizable=0;points=[];autosize=1;strokeColor=none;fillColor=none;fontSize=16;" parent="1" vertex="1">
          <mxGeometry x="-1855" y="1152" width="60" height="30" as="geometry" />
        </mxCell>
        <mxCell id="eLRa3TU9Jxvd6dPgThX7-69" value="False" style="text;html=1;align=center;verticalAlign=middle;resizable=0;points=[];autosize=1;strokeColor=none;fillColor=none;fontSize=16;" parent="1" vertex="1">
          <mxGeometry x="-1801" y="1220" width="60" height="30" as="geometry" />
        </mxCell>
        <mxCell id="eLRa3TU9Jxvd6dPgThX7-70" value="True" style="text;html=1;align=center;verticalAlign=middle;resizable=0;points=[];autosize=1;strokeColor=none;fillColor=none;fontSize=16;" parent="1" vertex="1">
          <mxGeometry x="-1855" y="1309" width="60" height="30" as="geometry" />
        </mxCell>
        <mxCell id="eLRa3TU9Jxvd6dPgThX7-71" value="" style="endArrow=classic;html=1;rounded=0;fontSize=12;startSize=8;endSize=8;curved=1;" parent="1" edge="1">
          <mxGeometry width="50" height="50" relative="1" as="geometry">
            <mxPoint x="-1675" y="551" as="sourcePoint" />
            <mxPoint x="-1675" y="511" as="targetPoint" />
          </mxGeometry>
        </mxCell>
        <mxCell id="eLRa3TU9Jxvd6dPgThX7-72" value="" style="endArrow=none;html=1;rounded=0;fontSize=12;startSize=8;endSize=8;curved=1;" parent="1" edge="1">
          <mxGeometry width="50" height="50" relative="1" as="geometry">
            <mxPoint x="-1675" y="551" as="sourcePoint" />
            <mxPoint x="-1325" y="551" as="targetPoint" />
          </mxGeometry>
        </mxCell>
        <mxCell id="eLRa3TU9Jxvd6dPgThX7-73" value="" style="endArrow=none;html=1;rounded=0;fontSize=12;startSize=8;endSize=8;curved=1;" parent="1" edge="1">
          <mxGeometry width="50" height="50" relative="1" as="geometry">
            <mxPoint x="-1325" y="791" as="sourcePoint" />
            <mxPoint x="-1325" y="551" as="targetPoint" />
          </mxGeometry>
        </mxCell>
        <mxCell id="eLRa3TU9Jxvd6dPgThX7-74" value="" style="endArrow=classic;html=1;rounded=0;fontSize=12;startSize=8;endSize=8;curved=1;" parent="1" edge="1">
          <mxGeometry width="50" height="50" relative="1" as="geometry">
            <mxPoint x="-1325" y="791" as="sourcePoint" />
            <mxPoint x="-1325" y="781" as="targetPoint" />
          </mxGeometry>
        </mxCell>
        <mxCell id="eLRa3TU9Jxvd6dPgThX7-75" value="" style="endArrow=none;html=1;rounded=0;fontSize=12;startSize=8;endSize=8;curved=1;" parent="1" edge="1">
          <mxGeometry width="50" height="50" relative="1" as="geometry">
            <mxPoint x="-1325" y="791" as="sourcePoint" />
            <mxPoint x="-965" y="791" as="targetPoint" />
          </mxGeometry>
        </mxCell>
        <mxCell id="eLRa3TU9Jxvd6dPgThX7-76" value="" style="endArrow=none;html=1;rounded=0;fontSize=12;startSize=8;endSize=8;curved=1;" parent="1" edge="1">
          <mxGeometry width="50" height="50" relative="1" as="geometry">
            <mxPoint x="-965" y="1250" as="sourcePoint" />
            <mxPoint x="-965" y="791" as="targetPoint" />
          </mxGeometry>
        </mxCell>
        <mxCell id="eLRa3TU9Jxvd6dPgThX7-77" value="Pilihan tidak valid" style="shape=parallelogram;perimeter=parallelogramPerimeter;whiteSpace=wrap;html=1;fixedSize=1;strokeWidth=2;" parent="1" vertex="1">
          <mxGeometry x="-1737.5" y="1220" width="120" height="60" as="geometry" />
        </mxCell>
        <mxCell id="eLRa3TU9Jxvd6dPgThX7-78" value="" style="endArrow=classic;html=1;rounded=0;fontSize=12;startSize=8;endSize=8;curved=1;" parent="1" edge="1">
          <mxGeometry width="50" height="50" relative="1" as="geometry">
            <mxPoint x="-1651" y="1270" as="sourcePoint" />
            <mxPoint x="-1611" y="1270" as="targetPoint" />
          </mxGeometry>
        </mxCell>
        <mxCell id="eLRa3TU9Jxvd6dPgThX7-81" value="" style="endArrow=classic;html=1;rounded=0;fontSize=12;startSize=8;endSize=8;curved=1;exitX=1;exitY=0.5;exitDx=0;exitDy=0;" parent="1" source="eLRa3TU9Jxvd6dPgThX7-225" edge="1">
          <mxGeometry width="50" height="50" relative="1" as="geometry">
            <mxPoint x="-1085" y="931" as="sourcePoint" />
            <mxPoint x="-965" y="931" as="targetPoint" />
          </mxGeometry>
        </mxCell>
        <mxCell id="eLRa3TU9Jxvd6dPgThX7-82" value="" style="endArrow=classic;html=1;rounded=0;fontSize=12;startSize=8;endSize=8;curved=1;" parent="1" edge="1">
          <mxGeometry width="50" height="50" relative="1" as="geometry">
            <mxPoint x="-1625" y="1250" as="sourcePoint" />
            <mxPoint x="-965" y="1250" as="targetPoint" />
          </mxGeometry>
        </mxCell>
        <mxCell id="eLRa3TU9Jxvd6dPgThX7-83" value="" style="endArrow=classic;html=1;rounded=0;fontSize=12;startSize=8;endSize=8;curved=1;" parent="1" edge="1">
          <mxGeometry width="50" height="50" relative="1" as="geometry">
            <mxPoint x="-965" y="791" as="sourcePoint" />
            <mxPoint x="-975" y="791" as="targetPoint" />
          </mxGeometry>
        </mxCell>
        <mxCell id="eLRa3TU9Jxvd6dPgThX7-103" value="" style="endArrow=classic;html=1;rounded=0;" parent="1" edge="1">
          <mxGeometry width="50" height="50" relative="1" as="geometry">
            <mxPoint x="-965" y="1162" as="sourcePoint" />
            <mxPoint x="-965" y="1092" as="targetPoint" />
          </mxGeometry>
        </mxCell>
        <mxCell id="eLRa3TU9Jxvd6dPgThX7-105" value="" style="endArrow=classic;html=1;rounded=0;" parent="1" edge="1">
          <mxGeometry width="50" height="50" relative="1" as="geometry">
            <mxPoint x="-965" y="1011" as="sourcePoint" />
            <mxPoint x="-965" y="931" as="targetPoint" />
          </mxGeometry>
        </mxCell>
        <mxCell id="eLRa3TU9Jxvd6dPgThX7-113" value="" style="endArrow=classic;html=1;rounded=0;" parent="1" edge="1">
          <mxGeometry width="50" height="50" relative="1" as="geometry">
            <mxPoint x="-1325" y="761" as="sourcePoint" />
            <mxPoint x="-1325" y="690" as="targetPoint" />
          </mxGeometry>
        </mxCell>
        <mxCell id="eLRa3TU9Jxvd6dPgThX7-114" value="" style="endArrow=none;html=1;rounded=0;exitX=1;exitY=0.5;exitDx=0;exitDy=0;" parent="1" source="eLRa3TU9Jxvd6dPgThX7-231" edge="1">
          <mxGeometry width="50" height="50" relative="1" as="geometry">
            <mxPoint x="-1645" y="791" as="sourcePoint" />
            <mxPoint x="-1325" y="791" as="targetPoint" />
          </mxGeometry>
        </mxCell>
        <mxCell id="eLRa3TU9Jxvd6dPgThX7-115" value="" style="endArrow=classic;html=1;rounded=0;" parent="1" edge="1">
          <mxGeometry width="50" height="50" relative="1" as="geometry">
            <mxPoint x="-1375" y="690" as="sourcePoint" />
            <mxPoint x="-1325" y="690" as="targetPoint" />
          </mxGeometry>
        </mxCell>
        <mxCell id="eLRa3TU9Jxvd6dPgThX7-126" value="End" style="strokeWidth=2;html=1;shape=mxgraph.flowchart.terminator;whiteSpace=wrap;" parent="1" vertex="1">
          <mxGeometry x="-1905" y="1359" width="100" height="60" as="geometry" />
        </mxCell>
        <mxCell id="eLRa3TU9Jxvd6dPgThX7-132" value="" style="edgeStyle=orthogonalEdgeStyle;rounded=0;orthogonalLoop=1;jettySize=auto;html=1;" parent="1" source="eLRa3TU9Jxvd6dPgThX7-130" target="eLRa3TU9Jxvd6dPgThX7-131" edge="1">
          <mxGeometry relative="1" as="geometry" />
        </mxCell>
        <mxCell id="eLRa3TU9Jxvd6dPgThX7-130" value="tambah_pemain&lt;div&gt;(nama,posisi,&lt;/div&gt;&lt;div&gt;no_punggung)&lt;/div&gt;" style="shape=process;whiteSpace=wrap;html=1;backgroundOutline=1;strokeWidth=2;" parent="1" vertex="1">
          <mxGeometry x="-4370" y="200" width="120" height="70" as="geometry" />
        </mxCell>
        <mxCell id="eLRa3TU9Jxvd6dPgThX7-135" value="" style="edgeStyle=orthogonalEdgeStyle;rounded=0;orthogonalLoop=1;jettySize=auto;html=1;" parent="1" source="eLRa3TU9Jxvd6dPgThX7-131" target="eLRa3TU9Jxvd6dPgThX7-133" edge="1">
          <mxGeometry relative="1" as="geometry" />
        </mxCell>
        <mxCell id="eLRa3TU9Jxvd6dPgThX7-131" value="Start" style="strokeWidth=2;html=1;shape=mxgraph.flowchart.terminator;whiteSpace=wrap;" parent="1" vertex="1">
          <mxGeometry x="-4360" y="310" width="100" height="60" as="geometry" />
        </mxCell>
        <mxCell id="eLRa3TU9Jxvd6dPgThX7-137" value="" style="edgeStyle=orthogonalEdgeStyle;rounded=0;orthogonalLoop=1;jettySize=auto;html=1;" parent="1" source="eLRa3TU9Jxvd6dPgThX7-133" target="eLRa3TU9Jxvd6dPgThX7-136" edge="1">
          <mxGeometry relative="1" as="geometry" />
        </mxCell>
        <mxCell id="eLRa3TU9Jxvd6dPgThX7-143" value="" style="edgeStyle=orthogonalEdgeStyle;rounded=0;orthogonalLoop=1;jettySize=auto;html=1;" parent="1" source="eLRa3TU9Jxvd6dPgThX7-133" target="eLRa3TU9Jxvd6dPgThX7-141" edge="1">
          <mxGeometry relative="1" as="geometry" />
        </mxCell>
        <mxCell id="eLRa3TU9Jxvd6dPgThX7-133" value="no_punggung&lt;div&gt;ada di daftar&amp;nbsp;&lt;/div&gt;&lt;div&gt;pemain&lt;/div&gt;" style="strokeWidth=2;html=1;shape=mxgraph.flowchart.decision;whiteSpace=wrap;" parent="1" vertex="1">
          <mxGeometry x="-4367.5" y="410" width="115" height="90" as="geometry" />
        </mxCell>
        <mxCell id="eLRa3TU9Jxvd6dPgThX7-146" value="" style="edgeStyle=orthogonalEdgeStyle;rounded=0;orthogonalLoop=1;jettySize=auto;html=1;" parent="1" source="eLRa3TU9Jxvd6dPgThX7-136" target="eLRa3TU9Jxvd6dPgThX7-145" edge="1">
          <mxGeometry relative="1" as="geometry" />
        </mxCell>
        <mxCell id="eLRa3TU9Jxvd6dPgThX7-136" value="pemain berhasil&lt;div&gt;ditambahkan&lt;/div&gt;" style="shape=parallelogram;perimeter=parallelogramPerimeter;whiteSpace=wrap;html=1;fixedSize=1;strokeWidth=2;" parent="1" vertex="1">
          <mxGeometry x="-4370" y="536" width="120" height="60" as="geometry" />
        </mxCell>
        <mxCell id="eLRa3TU9Jxvd6dPgThX7-138" value="" style="endArrow=classic;html=1;rounded=0;fontSize=12;startSize=8;endSize=8;curved=1;" parent="1" edge="1">
          <mxGeometry width="50" height="50" relative="1" as="geometry">
            <mxPoint x="-4270" y="585.09" as="sourcePoint" />
            <mxPoint x="-4230" y="585.09" as="targetPoint" />
          </mxGeometry>
        </mxCell>
        <mxCell id="eLRa3TU9Jxvd6dPgThX7-139" value="False" style="text;html=1;align=center;verticalAlign=middle;resizable=0;points=[];autosize=1;strokeColor=none;fillColor=none;" parent="1" vertex="1">
          <mxGeometry x="-4315" y="498" width="50" height="30" as="geometry" />
        </mxCell>
        <mxCell id="eLRa3TU9Jxvd6dPgThX7-141" value="no_punggung&amp;nbsp;&lt;div&gt;sdh ada, pemain&lt;div&gt;tidak bisa ditambahkan&lt;/div&gt;&lt;/div&gt;" style="shape=parallelogram;perimeter=parallelogramPerimeter;whiteSpace=wrap;html=1;fixedSize=1;strokeWidth=2;" parent="1" vertex="1">
          <mxGeometry x="-4190" y="425" width="120" height="60" as="geometry" />
        </mxCell>
        <mxCell id="eLRa3TU9Jxvd6dPgThX7-142" value="" style="endArrow=classic;html=1;rounded=0;fontSize=12;startSize=8;endSize=8;curved=1;" parent="1" edge="1">
          <mxGeometry width="50" height="50" relative="1" as="geometry">
            <mxPoint x="-4090" y="474.09000000000003" as="sourcePoint" />
            <mxPoint x="-4050" y="474.09000000000003" as="targetPoint" />
          </mxGeometry>
        </mxCell>
        <mxCell id="eLRa3TU9Jxvd6dPgThX7-144" value="True" style="text;html=1;align=center;verticalAlign=middle;resizable=0;points=[];autosize=1;strokeColor=none;fillColor=none;" parent="1" vertex="1">
          <mxGeometry x="-4250" y="421" width="50" height="30" as="geometry" />
        </mxCell>
        <mxCell id="eLRa3TU9Jxvd6dPgThX7-145" value="End" style="strokeWidth=2;html=1;shape=mxgraph.flowchart.terminator;whiteSpace=wrap;" parent="1" vertex="1">
          <mxGeometry x="-4360" y="641" width="100" height="60" as="geometry" />
        </mxCell>
        <mxCell id="eLRa3TU9Jxvd6dPgThX7-147" value="tambah_pemain&lt;div&gt;(nama,posisi,&lt;/div&gt;&lt;div&gt;no_punggung)&lt;/div&gt;" style="shape=process;whiteSpace=wrap;html=1;backgroundOutline=1;strokeWidth=2;" parent="1" vertex="1">
          <mxGeometry x="-1495" y="656" width="120" height="70" as="geometry" />
        </mxCell>
        <mxCell id="eLRa3TU9Jxvd6dPgThX7-148" value="" style="endArrow=none;html=1;rounded=0;entryX=0.5;entryY=1;entryDx=0;entryDy=0;" parent="1" target="eLRa3TU9Jxvd6dPgThX7-141" edge="1">
          <mxGeometry width="50" height="50" relative="1" as="geometry">
            <mxPoint x="-4130" y="620" as="sourcePoint" />
            <mxPoint x="-4130" y="500" as="targetPoint" />
          </mxGeometry>
        </mxCell>
        <mxCell id="eLRa3TU9Jxvd6dPgThX7-149" value="" style="endArrow=classic;html=1;rounded=0;" parent="1" edge="1">
          <mxGeometry width="50" height="50" relative="1" as="geometry">
            <mxPoint x="-4130" y="620" as="sourcePoint" />
            <mxPoint x="-4310" y="620" as="targetPoint" />
          </mxGeometry>
        </mxCell>
        <mxCell id="eLRa3TU9Jxvd6dPgThX7-154" value="" style="edgeStyle=orthogonalEdgeStyle;rounded=0;orthogonalLoop=1;jettySize=auto;html=1;" parent="1" source="eLRa3TU9Jxvd6dPgThX7-150" target="eLRa3TU9Jxvd6dPgThX7-153" edge="1">
          <mxGeometry relative="1" as="geometry" />
        </mxCell>
        <mxCell id="eLRa3TU9Jxvd6dPgThX7-150" value="menu_user()" style="shape=process;whiteSpace=wrap;html=1;backgroundOutline=1;strokeWidth=2;" parent="1" vertex="1">
          <mxGeometry x="-2510" y="200" width="120" height="70" as="geometry" />
        </mxCell>
        <mxCell id="eLRa3TU9Jxvd6dPgThX7-159" value="" style="edgeStyle=orthogonalEdgeStyle;rounded=0;orthogonalLoop=1;jettySize=auto;html=1;" parent="1" source="eLRa3TU9Jxvd6dPgThX7-151" target="eLRa3TU9Jxvd6dPgThX7-157" edge="1">
          <mxGeometry relative="1" as="geometry" />
        </mxCell>
        <mxCell id="eLRa3TU9Jxvd6dPgThX7-151" value="Menu pengguna&lt;div&gt;1. Tampilkan pemain&lt;/div&gt;&lt;div&gt;2. Logout&lt;/div&gt;" style="shape=parallelogram;perimeter=parallelogramPerimeter;whiteSpace=wrap;html=1;fixedSize=1;strokeWidth=2;" parent="1" vertex="1">
          <mxGeometry x="-2520" y="430" width="140" height="70" as="geometry" />
        </mxCell>
        <mxCell id="eLRa3TU9Jxvd6dPgThX7-152" value="" style="endArrow=classic;html=1;rounded=0;fontSize=12;startSize=8;endSize=8;curved=1;" parent="1" edge="1">
          <mxGeometry width="50" height="50" relative="1" as="geometry">
            <mxPoint x="-2414" y="490" as="sourcePoint" />
            <mxPoint x="-2374" y="490" as="targetPoint" />
          </mxGeometry>
        </mxCell>
        <mxCell id="eLRa3TU9Jxvd6dPgThX7-156" value="" style="edgeStyle=orthogonalEdgeStyle;rounded=0;orthogonalLoop=1;jettySize=auto;html=1;" parent="1" source="eLRa3TU9Jxvd6dPgThX7-153" target="eLRa3TU9Jxvd6dPgThX7-151" edge="1">
          <mxGeometry relative="1" as="geometry" />
        </mxCell>
        <mxCell id="eLRa3TU9Jxvd6dPgThX7-153" value="Start" style="strokeWidth=2;html=1;shape=mxgraph.flowchart.terminator;whiteSpace=wrap;" parent="1" vertex="1">
          <mxGeometry x="-2500" y="320" width="100" height="60" as="geometry" />
        </mxCell>
        <mxCell id="eLRa3TU9Jxvd6dPgThX7-161" value="" style="edgeStyle=orthogonalEdgeStyle;rounded=0;orthogonalLoop=1;jettySize=auto;html=1;" parent="1" source="eLRa3TU9Jxvd6dPgThX7-157" target="eLRa3TU9Jxvd6dPgThX7-160" edge="1">
          <mxGeometry relative="1" as="geometry" />
        </mxCell>
        <mxCell id="eLRa3TU9Jxvd6dPgThX7-157" value="Pilih menu&lt;div&gt;(1-2):&lt;/div&gt;" style="shape=parallelogram;perimeter=parallelogramPerimeter;whiteSpace=wrap;html=1;fixedSize=1;strokeWidth=2;" parent="1" vertex="1">
          <mxGeometry x="-2520" y="558" width="140" height="65" as="geometry" />
        </mxCell>
        <mxCell id="eLRa3TU9Jxvd6dPgThX7-158" value="" style="endArrow=classic;html=1;rounded=0;fontSize=12;startSize=8;endSize=8;curved=1;" parent="1" edge="1">
          <mxGeometry width="50" height="50" relative="1" as="geometry">
            <mxPoint x="-2520" y="566.5" as="sourcePoint" />
            <mxPoint x="-2480" y="566.5" as="targetPoint" />
          </mxGeometry>
        </mxCell>
        <mxCell id="eLRa3TU9Jxvd6dPgThX7-163" value="" style="edgeStyle=orthogonalEdgeStyle;rounded=0;orthogonalLoop=1;jettySize=auto;html=1;" parent="1" source="eLRa3TU9Jxvd6dPgThX7-160" target="eLRa3TU9Jxvd6dPgThX7-162" edge="1">
          <mxGeometry relative="1" as="geometry" />
        </mxCell>
        <mxCell id="eLRa3TU9Jxvd6dPgThX7-165" value="" style="edgeStyle=orthogonalEdgeStyle;rounded=0;orthogonalLoop=1;jettySize=auto;html=1;" parent="1" source="eLRa3TU9Jxvd6dPgThX7-160" target="eLRa3TU9Jxvd6dPgThX7-164" edge="1">
          <mxGeometry relative="1" as="geometry" />
        </mxCell>
        <mxCell id="eLRa3TU9Jxvd6dPgThX7-160" value="pilihan user&lt;div&gt;== 1&lt;/div&gt;" style="rhombus;whiteSpace=wrap;html=1;strokeWidth=2;" parent="1" vertex="1">
          <mxGeometry x="-2494.5" y="681.25" width="89" height="97.5" as="geometry" />
        </mxCell>
        <mxCell id="eLRa3TU9Jxvd6dPgThX7-170" value="" style="edgeStyle=orthogonalEdgeStyle;rounded=0;orthogonalLoop=1;jettySize=auto;html=1;" parent="1" source="eLRa3TU9Jxvd6dPgThX7-162" target="eLRa3TU9Jxvd6dPgThX7-168" edge="1">
          <mxGeometry relative="1" as="geometry" />
        </mxCell>
        <mxCell id="eLRa3TU9Jxvd6dPgThX7-177" value="" style="edgeStyle=orthogonalEdgeStyle;rounded=0;orthogonalLoop=1;jettySize=auto;html=1;" parent="1" source="eLRa3TU9Jxvd6dPgThX7-162" target="eLRa3TU9Jxvd6dPgThX7-176" edge="1">
          <mxGeometry relative="1" as="geometry" />
        </mxCell>
        <mxCell id="eLRa3TU9Jxvd6dPgThX7-162" value="pilihan user&lt;div&gt;== 2&lt;/div&gt;" style="rhombus;whiteSpace=wrap;html=1;strokeWidth=2;" parent="1" vertex="1">
          <mxGeometry x="-2495.5" y="845" width="90" height="95" as="geometry" />
        </mxCell>
        <mxCell id="eLRa3TU9Jxvd6dPgThX7-164" value="tampilkan_pemain&lt;span style=&quot;background-color: initial;&quot;&gt;()&lt;/span&gt;" style="shape=process;whiteSpace=wrap;html=1;backgroundOutline=1;strokeWidth=2;" parent="1" vertex="1">
          <mxGeometry x="-2350" y="692.5" width="150" height="75" as="geometry" />
        </mxCell>
        <mxCell id="eLRa3TU9Jxvd6dPgThX7-166" value="True" style="text;html=1;align=center;verticalAlign=middle;resizable=0;points=[];autosize=1;strokeColor=none;fillColor=none;" parent="1" vertex="1">
          <mxGeometry x="-2405" y="698" width="50" height="30" as="geometry" />
        </mxCell>
        <mxCell id="eLRa3TU9Jxvd6dPgThX7-167" value="False" style="text;html=1;align=center;verticalAlign=middle;resizable=0;points=[];autosize=1;strokeColor=none;fillColor=none;" parent="1" vertex="1">
          <mxGeometry x="-2455" y="778" width="50" height="30" as="geometry" />
        </mxCell>
        <mxCell id="eLRa3TU9Jxvd6dPgThX7-168" value="Pilihan tidak valid" style="shape=parallelogram;perimeter=parallelogramPerimeter;whiteSpace=wrap;html=1;fixedSize=1;strokeWidth=2;" parent="1" vertex="1">
          <mxGeometry x="-2710" y="857.5" width="140" height="70" as="geometry" />
        </mxCell>
        <mxCell id="eLRa3TU9Jxvd6dPgThX7-169" value="" style="endArrow=classic;html=1;rounded=0;fontSize=12;startSize=8;endSize=8;curved=1;" parent="1" edge="1">
          <mxGeometry width="50" height="50" relative="1" as="geometry">
            <mxPoint x="-2605" y="920.96" as="sourcePoint" />
            <mxPoint x="-2565" y="920.96" as="targetPoint" />
          </mxGeometry>
        </mxCell>
        <mxCell id="eLRa3TU9Jxvd6dPgThX7-171" value="False" style="text;html=1;align=center;verticalAlign=middle;resizable=0;points=[];autosize=1;strokeColor=none;fillColor=none;" parent="1" vertex="1">
          <mxGeometry x="-2550" y="857.5" width="50" height="30" as="geometry" />
        </mxCell>
        <mxCell id="eLRa3TU9Jxvd6dPgThX7-172" value="" style="endArrow=none;html=1;rounded=0;" parent="1" edge="1">
          <mxGeometry width="50" height="50" relative="1" as="geometry">
            <mxPoint x="-2640.5" y="857.5" as="sourcePoint" />
            <mxPoint x="-2640" y="460" as="targetPoint" />
          </mxGeometry>
        </mxCell>
        <mxCell id="eLRa3TU9Jxvd6dPgThX7-175" value="" style="endArrow=classic;html=1;rounded=0;" parent="1" edge="1">
          <mxGeometry width="50" height="50" relative="1" as="geometry">
            <mxPoint x="-2640" y="458" as="sourcePoint" />
            <mxPoint x="-2509.552238805971" y="458.43283582089543" as="targetPoint" />
          </mxGeometry>
        </mxCell>
        <mxCell id="eLRa3TU9Jxvd6dPgThX7-176" value="End" style="strokeWidth=2;html=1;shape=mxgraph.flowchart.terminator;whiteSpace=wrap;" parent="1" vertex="1">
          <mxGeometry x="-2500" y="991" width="100" height="60" as="geometry" />
        </mxCell>
        <mxCell id="eLRa3TU9Jxvd6dPgThX7-178" value="" style="endArrow=none;html=1;rounded=0;" parent="1" edge="1">
          <mxGeometry width="50" height="50" relative="1" as="geometry">
            <mxPoint x="-2270" y="692" as="sourcePoint" />
            <mxPoint x="-2270" y="462" as="targetPoint" />
          </mxGeometry>
        </mxCell>
        <mxCell id="eLRa3TU9Jxvd6dPgThX7-179" value="" style="endArrow=classic;html=1;rounded=0;" parent="1" edge="1">
          <mxGeometry width="50" height="50" relative="1" as="geometry">
            <mxPoint x="-2270" y="462.3" as="sourcePoint" />
            <mxPoint x="-2390" y="462" as="targetPoint" />
          </mxGeometry>
        </mxCell>
        <mxCell id="eLRa3TU9Jxvd6dPgThX7-180" value="menu_user&lt;span style=&quot;background-color: initial;&quot;&gt;()&lt;/span&gt;" style="shape=process;whiteSpace=wrap;html=1;backgroundOutline=1;strokeWidth=2;" parent="1" vertex="1">
          <mxGeometry x="403.5" y="1001" width="120" height="60" as="geometry" />
        </mxCell>
        <mxCell id="eLRa3TU9Jxvd6dPgThX7-182" value="menu_admin&lt;span style=&quot;background-color: initial;&quot;&gt;()&lt;/span&gt;" style="shape=process;whiteSpace=wrap;html=1;backgroundOutline=1;strokeWidth=2;" parent="1" vertex="1">
          <mxGeometry x="203.5" y="1125" width="120" height="60" as="geometry" />
        </mxCell>
        <mxCell id="eLRa3TU9Jxvd6dPgThX7-184" value="True" style="text;html=1;align=center;verticalAlign=middle;resizable=0;points=[];autosize=1;strokeColor=none;fillColor=none;" parent="1" vertex="1">
          <mxGeometry x="258.5" y="1083" width="50" height="30" as="geometry" />
        </mxCell>
        <mxCell id="eLRa3TU9Jxvd6dPgThX7-185" value="" style="endArrow=none;html=1;rounded=0;exitX=1;exitY=0.5;exitDx=0;exitDy=0;" parent="1" source="eLRa3TU9Jxvd6dPgThX7-182" edge="1">
          <mxGeometry width="50" height="50" relative="1" as="geometry">
            <mxPoint x="470" y="1153" as="sourcePoint" />
            <mxPoint x="1160" y="1153" as="targetPoint" />
          </mxGeometry>
        </mxCell>
        <mxCell id="eLRa3TU9Jxvd6dPgThX7-186" value="" style="endArrow=classic;html=1;rounded=0;exitX=1;exitY=0.5;exitDx=0;exitDy=0;" parent="1" source="eLRa3TU9Jxvd6dPgThX7-180" edge="1">
          <mxGeometry width="50" height="50" relative="1" as="geometry">
            <mxPoint x="670" y="1033" as="sourcePoint" />
            <mxPoint x="1160" y="1033" as="targetPoint" />
          </mxGeometry>
        </mxCell>
        <mxCell id="eLRa3TU9Jxvd6dPgThX7-187" value="" style="endArrow=classic;html=1;rounded=0;" parent="1" edge="1">
          <mxGeometry width="50" height="50" relative="1" as="geometry">
            <mxPoint x="1160" y="1153" as="sourcePoint" />
            <mxPoint x="1160" y="1033" as="targetPoint" />
          </mxGeometry>
        </mxCell>
        <mxCell id="eLRa3TU9Jxvd6dPgThX7-188" value="True" style="text;html=1;align=center;verticalAlign=middle;resizable=0;points=[];autosize=1;strokeColor=none;fillColor=none;" parent="1" vertex="1">
          <mxGeometry x="-2455" y="940" width="50" height="30" as="geometry" />
        </mxCell>
        <mxCell id="eLRa3TU9Jxvd6dPgThX7-191" value="" style="edgeStyle=orthogonalEdgeStyle;rounded=0;orthogonalLoop=1;jettySize=auto;html=1;" parent="1" source="eLRa3TU9Jxvd6dPgThX7-189" target="eLRa3TU9Jxvd6dPgThX7-190" edge="1">
          <mxGeometry relative="1" as="geometry" />
        </mxCell>
        <mxCell id="eLRa3TU9Jxvd6dPgThX7-189" value="hapus_pemain()" style="shape=process;whiteSpace=wrap;html=1;backgroundOutline=1;strokeWidth=2;" parent="1" vertex="1">
          <mxGeometry x="-3165.75" y="199.49" width="120" height="70" as="geometry" />
        </mxCell>
        <mxCell id="UezKkUueuSIgXUtP9DaV-30" value="" style="edgeStyle=orthogonalEdgeStyle;rounded=0;orthogonalLoop=1;jettySize=auto;html=1;" edge="1" parent="1" source="eLRa3TU9Jxvd6dPgThX7-190" target="UezKkUueuSIgXUtP9DaV-29">
          <mxGeometry relative="1" as="geometry" />
        </mxCell>
        <mxCell id="eLRa3TU9Jxvd6dPgThX7-190" value="Start" style="strokeWidth=2;html=1;shape=mxgraph.flowchart.terminator;whiteSpace=wrap;" parent="1" vertex="1">
          <mxGeometry x="-3155.75" y="319.49" width="100" height="60" as="geometry" />
        </mxCell>
        <mxCell id="eLRa3TU9Jxvd6dPgThX7-205" value="" style="edgeStyle=orthogonalEdgeStyle;rounded=0;orthogonalLoop=1;jettySize=auto;html=1;" parent="1" target="eLRa3TU9Jxvd6dPgThX7-197" edge="1">
          <mxGeometry relative="1" as="geometry">
            <mxPoint x="-3105" y="490.49" as="sourcePoint" />
          </mxGeometry>
        </mxCell>
        <mxCell id="eLRa3TU9Jxvd6dPgThX7-195" value="" style="edgeStyle=none;curved=1;rounded=0;orthogonalLoop=1;jettySize=auto;html=1;fontSize=12;startSize=8;endSize=8;" parent="1" source="eLRa3TU9Jxvd6dPgThX7-197" target="eLRa3TU9Jxvd6dPgThX7-198" edge="1">
          <mxGeometry relative="1" as="geometry" />
        </mxCell>
        <mxCell id="eLRa3TU9Jxvd6dPgThX7-196" value="" style="edgeStyle=orthogonalEdgeStyle;rounded=0;orthogonalLoop=1;jettySize=auto;html=1;" parent="1" source="eLRa3TU9Jxvd6dPgThX7-197" edge="1">
          <mxGeometry relative="1" as="geometry">
            <mxPoint x="-3105.0333333333338" y="707.49" as="targetPoint" />
          </mxGeometry>
        </mxCell>
        <mxCell id="eLRa3TU9Jxvd6dPgThX7-197" value="nomor&amp;nbsp;&lt;div&gt;punggung ada&amp;nbsp;&lt;br&gt;&lt;/div&gt;&lt;div&gt;di daftar&lt;/div&gt;&lt;div&gt;pemain&lt;/div&gt;" style="rhombus;whiteSpace=wrap;html=1;strokeWidth=2;" parent="1" vertex="1">
          <mxGeometry x="-3168.5" y="537.49" width="126" height="120" as="geometry" />
        </mxCell>
        <mxCell id="eLRa3TU9Jxvd6dPgThX7-198" value="nomor&amp;nbsp;&lt;div&gt;punggung&lt;div&gt;tidak&lt;div&gt;ditemukan&lt;/div&gt;&lt;/div&gt;&lt;/div&gt;" style="shape=parallelogram;perimeter=parallelogramPerimeter;whiteSpace=wrap;html=1;fixedSize=1;strokeWidth=2;" parent="1" vertex="1">
          <mxGeometry x="-2965.75" y="564.49" width="120" height="60" as="geometry" />
        </mxCell>
        <mxCell id="eLRa3TU9Jxvd6dPgThX7-199" value="" style="endArrow=classic;html=1;rounded=0;fontSize=12;startSize=8;endSize=8;curved=1;" parent="1" edge="1">
          <mxGeometry width="50" height="50" relative="1" as="geometry">
            <mxPoint x="-2875.75" y="614.49" as="sourcePoint" />
            <mxPoint x="-2835.75" y="614.49" as="targetPoint" />
          </mxGeometry>
        </mxCell>
        <mxCell id="eLRa3TU9Jxvd6dPgThX7-200" value="False" style="text;html=1;align=center;verticalAlign=middle;resizable=0;points=[];autosize=1;strokeColor=none;fillColor=none;fontSize=16;" parent="1" vertex="1">
          <mxGeometry x="-3025.75" y="564.49" width="60" height="30" as="geometry" />
        </mxCell>
        <mxCell id="eLRa3TU9Jxvd6dPgThX7-201" value="True" style="text;html=1;align=center;verticalAlign=middle;resizable=0;points=[];autosize=1;strokeColor=none;fillColor=none;fontSize=16;" parent="1" vertex="1">
          <mxGeometry x="-3105" y="667.49" width="60" height="30" as="geometry" />
        </mxCell>
        <mxCell id="eLRa3TU9Jxvd6dPgThX7-207" value="" style="edgeStyle=orthogonalEdgeStyle;rounded=0;orthogonalLoop=1;jettySize=auto;html=1;" parent="1" source="eLRa3TU9Jxvd6dPgThX7-202" target="eLRa3TU9Jxvd6dPgThX7-206" edge="1">
          <mxGeometry relative="1" as="geometry" />
        </mxCell>
        <mxCell id="eLRa3TU9Jxvd6dPgThX7-202" value="Pemain berhasil&lt;div&gt;dihapus&lt;/div&gt;" style="shape=parallelogram;perimeter=parallelogramPerimeter;whiteSpace=wrap;html=1;fixedSize=1;strokeWidth=2;" parent="1" vertex="1">
          <mxGeometry x="-3170.5" y="707.49" width="120" height="60" as="geometry" />
        </mxCell>
        <mxCell id="eLRa3TU9Jxvd6dPgThX7-203" value="" style="endArrow=classic;html=1;rounded=0;fontSize=12;startSize=8;endSize=8;curved=1;" parent="1" edge="1">
          <mxGeometry width="50" height="50" relative="1" as="geometry">
            <mxPoint x="-3080.5" y="757.49" as="sourcePoint" />
            <mxPoint x="-3040.5" y="757.49" as="targetPoint" />
          </mxGeometry>
        </mxCell>
        <mxCell id="eLRa3TU9Jxvd6dPgThX7-206" value="End" style="strokeWidth=2;html=1;shape=mxgraph.flowchart.terminator;whiteSpace=wrap;" parent="1" vertex="1">
          <mxGeometry x="-3160.5" y="815.49" width="100" height="60" as="geometry" />
        </mxCell>
        <mxCell id="eLRa3TU9Jxvd6dPgThX7-208" value="" style="endArrow=none;html=1;rounded=0;" parent="1" edge="1">
          <mxGeometry width="50" height="50" relative="1" as="geometry">
            <mxPoint x="-2905.75" y="799.49" as="sourcePoint" />
            <mxPoint x="-2905.75" y="629.49" as="targetPoint" />
          </mxGeometry>
        </mxCell>
        <mxCell id="eLRa3TU9Jxvd6dPgThX7-209" value="" style="endArrow=classic;html=1;rounded=0;" parent="1" edge="1">
          <mxGeometry width="50" height="50" relative="1" as="geometry">
            <mxPoint x="-2905.75" y="799.49" as="sourcePoint" />
            <mxPoint x="-3105.75" y="799.49" as="targetPoint" />
          </mxGeometry>
        </mxCell>
        <mxCell id="eLRa3TU9Jxvd6dPgThX7-213" value="" style="edgeStyle=orthogonalEdgeStyle;rounded=0;orthogonalLoop=1;jettySize=auto;html=1;" parent="1" source="eLRa3TU9Jxvd6dPgThX7-210" target="eLRa3TU9Jxvd6dPgThX7-211" edge="1">
          <mxGeometry relative="1" as="geometry" />
        </mxCell>
        <mxCell id="eLRa3TU9Jxvd6dPgThX7-210" value="tampilkan_pemain&lt;span style=&quot;background-color: initial;&quot;&gt;()&lt;/span&gt;" style="shape=process;whiteSpace=wrap;html=1;backgroundOutline=1;strokeWidth=2;" parent="1" vertex="1">
          <mxGeometry x="-1729.5" y="1057" width="144.5" height="64" as="geometry" />
        </mxCell>
        <mxCell id="eLRa3TU9Jxvd6dPgThX7-211" value="hapus_pemain()" style="shape=process;whiteSpace=wrap;html=1;backgroundOutline=1;strokeWidth=2;" parent="1" vertex="1">
          <mxGeometry x="-1535" y="1054" width="120" height="70" as="geometry" />
        </mxCell>
        <mxCell id="eLRa3TU9Jxvd6dPgThX7-214" value="" style="endArrow=classic;html=1;rounded=0;" parent="1" edge="1">
          <mxGeometry width="50" height="50" relative="1" as="geometry">
            <mxPoint x="-1415" y="1091" as="sourcePoint" />
            <mxPoint x="-965" y="1091" as="targetPoint" />
          </mxGeometry>
        </mxCell>
        <mxCell id="eLRa3TU9Jxvd6dPgThX7-217" value="" style="edgeStyle=orthogonalEdgeStyle;rounded=0;orthogonalLoop=1;jettySize=auto;html=1;" parent="1" source="eLRa3TU9Jxvd6dPgThX7-215" target="eLRa3TU9Jxvd6dPgThX7-216" edge="1">
          <mxGeometry relative="1" as="geometry" />
        </mxCell>
        <mxCell id="eLRa3TU9Jxvd6dPgThX7-215" value="update_pemain&lt;div&gt;(no_punggung&lt;span style=&quot;background-color: initial;&quot;&gt;)&lt;/span&gt;&lt;/div&gt;" style="shape=process;whiteSpace=wrap;html=1;backgroundOutline=1;strokeWidth=2;" parent="1" vertex="1">
          <mxGeometry x="-3594" y="199.49" width="120" height="70" as="geometry" />
        </mxCell>
        <mxCell id="UezKkUueuSIgXUtP9DaV-11" value="" style="edgeStyle=orthogonalEdgeStyle;rounded=0;orthogonalLoop=1;jettySize=auto;html=1;" edge="1" parent="1" source="eLRa3TU9Jxvd6dPgThX7-216" target="UezKkUueuSIgXUtP9DaV-3">
          <mxGeometry relative="1" as="geometry" />
        </mxCell>
        <mxCell id="eLRa3TU9Jxvd6dPgThX7-216" value="Start" style="strokeWidth=2;html=1;shape=mxgraph.flowchart.terminator;whiteSpace=wrap;" parent="1" vertex="1">
          <mxGeometry x="-3584" y="319.49" width="100" height="60" as="geometry" />
        </mxCell>
        <mxCell id="eLRa3TU9Jxvd6dPgThX7-224" value="" style="edgeStyle=orthogonalEdgeStyle;rounded=0;orthogonalLoop=1;jettySize=auto;html=1;" parent="1" source="eLRa3TU9Jxvd6dPgThX7-220" target="eLRa3TU9Jxvd6dPgThX7-223" edge="1">
          <mxGeometry relative="1" as="geometry" />
        </mxCell>
        <mxCell id="eLRa3TU9Jxvd6dPgThX7-220" value="Pemain berhasil&lt;div&gt;diupdate&lt;/div&gt;" style="shape=parallelogram;perimeter=parallelogramPerimeter;whiteSpace=wrap;html=1;fixedSize=1;strokeWidth=2;" parent="1" vertex="1">
          <mxGeometry x="-3594" y="797.5" width="120" height="60" as="geometry" />
        </mxCell>
        <mxCell id="eLRa3TU9Jxvd6dPgThX7-221" value="" style="endArrow=classic;html=1;rounded=0;fontSize=12;startSize=8;endSize=8;curved=1;" parent="1" edge="1">
          <mxGeometry width="50" height="50" relative="1" as="geometry">
            <mxPoint x="-3501.5" y="847.5" as="sourcePoint" />
            <mxPoint x="-3461.5" y="847.5" as="targetPoint" />
          </mxGeometry>
        </mxCell>
        <mxCell id="eLRa3TU9Jxvd6dPgThX7-223" value="End" style="strokeWidth=2;html=1;shape=mxgraph.flowchart.terminator;whiteSpace=wrap;" parent="1" vertex="1">
          <mxGeometry x="-3584" y="927.5" width="100" height="60" as="geometry" />
        </mxCell>
        <mxCell id="eLRa3TU9Jxvd6dPgThX7-225" value="update_pemain&lt;div&gt;(no_punggung&lt;span style=&quot;background-color: initial;&quot;&gt;)&lt;/span&gt;&lt;/div&gt;" style="shape=process;whiteSpace=wrap;html=1;backgroundOutline=1;strokeWidth=2;" parent="1" vertex="1">
          <mxGeometry x="-1395" y="896" width="120" height="70" as="geometry" />
        </mxCell>
        <mxCell id="UezKkUueuSIgXUtP9DaV-35" value="" style="edgeStyle=orthogonalEdgeStyle;rounded=0;orthogonalLoop=1;jettySize=auto;html=1;" edge="1" parent="1" source="eLRa3TU9Jxvd6dPgThX7-229" target="UezKkUueuSIgXUtP9DaV-34">
          <mxGeometry relative="1" as="geometry" />
        </mxCell>
        <mxCell id="eLRa3TU9Jxvd6dPgThX7-229" value="tampilkan_pemain&lt;span style=&quot;background-color: initial;&quot;&gt;()&lt;/span&gt;" style="shape=process;whiteSpace=wrap;html=1;backgroundOutline=1;strokeWidth=2;" parent="1" vertex="1">
          <mxGeometry x="-1751.75" y="899" width="144.5" height="64" as="geometry" />
        </mxCell>
        <mxCell id="eLRa3TU9Jxvd6dPgThX7-231" value="tampilkan_pemain&lt;span style=&quot;background-color: initial;&quot;&gt;()&lt;/span&gt;" style="shape=process;whiteSpace=wrap;html=1;backgroundOutline=1;strokeWidth=2;" parent="1" vertex="1">
          <mxGeometry x="-1741" y="759" width="144.5" height="64" as="geometry" />
        </mxCell>
        <mxCell id="eLRa3TU9Jxvd6dPgThX7-234" value="" style="edgeStyle=orthogonalEdgeStyle;rounded=0;orthogonalLoop=1;jettySize=auto;html=1;" parent="1" source="eLRa3TU9Jxvd6dPgThX7-232" target="eLRa3TU9Jxvd6dPgThX7-233" edge="1">
          <mxGeometry relative="1" as="geometry" />
        </mxCell>
        <mxCell id="eLRa3TU9Jxvd6dPgThX7-232" value="tampilkan_pemain()" style="shape=process;whiteSpace=wrap;html=1;backgroundOutline=1;strokeWidth=2;" parent="1" vertex="1">
          <mxGeometry x="-3930" y="199.49" width="140" height="70.51" as="geometry" />
        </mxCell>
        <mxCell id="eLRa3TU9Jxvd6dPgThX7-237" value="" style="edgeStyle=orthogonalEdgeStyle;rounded=0;orthogonalLoop=1;jettySize=auto;html=1;" parent="1" source="eLRa3TU9Jxvd6dPgThX7-233" target="eLRa3TU9Jxvd6dPgThX7-235" edge="1">
          <mxGeometry relative="1" as="geometry" />
        </mxCell>
        <mxCell id="eLRa3TU9Jxvd6dPgThX7-233" value="Start" style="strokeWidth=2;html=1;shape=mxgraph.flowchart.terminator;whiteSpace=wrap;" parent="1" vertex="1">
          <mxGeometry x="-3910" y="320" width="100" height="60" as="geometry" />
        </mxCell>
        <mxCell id="eLRa3TU9Jxvd6dPgThX7-239" value="" style="edgeStyle=orthogonalEdgeStyle;rounded=0;orthogonalLoop=1;jettySize=auto;html=1;" parent="1" source="eLRa3TU9Jxvd6dPgThX7-235" target="eLRa3TU9Jxvd6dPgThX7-238" edge="1">
          <mxGeometry relative="1" as="geometry" />
        </mxCell>
        <mxCell id="eLRa3TU9Jxvd6dPgThX7-235" value="Daftar&amp;nbsp;&lt;div&gt;no punggung&lt;div&gt;pemain beserta&lt;/div&gt;&lt;div&gt;nama dan posisi&lt;/div&gt;&lt;/div&gt;" style="shape=parallelogram;perimeter=parallelogramPerimeter;whiteSpace=wrap;html=1;fixedSize=1;strokeWidth=2;" parent="1" vertex="1">
          <mxGeometry x="-3927" y="430" width="135" height="70" as="geometry" />
        </mxCell>
        <mxCell id="eLRa3TU9Jxvd6dPgThX7-236" value="" style="endArrow=classic;html=1;rounded=0;fontSize=12;startSize=8;endSize=8;curved=1;" parent="1" edge="1">
          <mxGeometry width="50" height="50" relative="1" as="geometry">
            <mxPoint x="-3822" y="495.2" as="sourcePoint" />
            <mxPoint x="-3782" y="495.2" as="targetPoint" />
          </mxGeometry>
        </mxCell>
        <mxCell id="eLRa3TU9Jxvd6dPgThX7-238" value="End" style="strokeWidth=2;html=1;shape=mxgraph.flowchart.terminator;whiteSpace=wrap;" parent="1" vertex="1">
          <mxGeometry x="-3909" y="563" width="100" height="60" as="geometry" />
        </mxCell>
        <mxCell id="UezKkUueuSIgXUtP9DaV-1" value="" style="edgeStyle=none;curved=1;rounded=0;orthogonalLoop=1;jettySize=auto;html=1;fontSize=12;startSize=8;endSize=8;" edge="1" parent="1" source="UezKkUueuSIgXUtP9DaV-3" target="UezKkUueuSIgXUtP9DaV-4">
          <mxGeometry relative="1" as="geometry" />
        </mxCell>
        <mxCell id="UezKkUueuSIgXUtP9DaV-22" value="" style="edgeStyle=orthogonalEdgeStyle;rounded=0;orthogonalLoop=1;jettySize=auto;html=1;" edge="1" parent="1" source="UezKkUueuSIgXUtP9DaV-3" target="UezKkUueuSIgXUtP9DaV-21">
          <mxGeometry relative="1" as="geometry" />
        </mxCell>
        <mxCell id="UezKkUueuSIgXUtP9DaV-3" value="nomor&amp;nbsp;&lt;div&gt;punggung ada&lt;span style=&quot;background-color: initial;&quot;&gt;&lt;br&gt;&lt;/span&gt;&lt;/div&gt;&lt;div&gt;di daftar&lt;/div&gt;&lt;div&gt;pemain&lt;/div&gt;" style="rhombus;whiteSpace=wrap;html=1;strokeWidth=2;" vertex="1" parent="1">
          <mxGeometry x="-3598" y="411" width="126" height="120" as="geometry" />
        </mxCell>
        <mxCell id="UezKkUueuSIgXUtP9DaV-4" value="nomor&amp;nbsp;&lt;div&gt;punggung&lt;div&gt;tidak&lt;div&gt;ditemukan&lt;/div&gt;&lt;/div&gt;&lt;/div&gt;" style="shape=parallelogram;perimeter=parallelogramPerimeter;whiteSpace=wrap;html=1;fixedSize=1;strokeWidth=2;" vertex="1" parent="1">
          <mxGeometry x="-3408" y="441" width="120" height="60" as="geometry" />
        </mxCell>
        <mxCell id="UezKkUueuSIgXUtP9DaV-5" value="" style="endArrow=classic;html=1;rounded=0;fontSize=12;startSize=8;endSize=8;curved=1;" edge="1" parent="1">
          <mxGeometry width="50" height="50" relative="1" as="geometry">
            <mxPoint x="-3318" y="491" as="sourcePoint" />
            <mxPoint x="-3278" y="491" as="targetPoint" />
          </mxGeometry>
        </mxCell>
        <mxCell id="UezKkUueuSIgXUtP9DaV-6" value="False" style="text;html=1;align=center;verticalAlign=middle;resizable=0;points=[];autosize=1;strokeColor=none;fillColor=none;fontSize=16;" vertex="1" parent="1">
          <mxGeometry x="-3468" y="438.5" width="60" height="30" as="geometry" />
        </mxCell>
        <mxCell id="UezKkUueuSIgXUtP9DaV-9" value="True" style="text;html=1;align=center;verticalAlign=middle;resizable=0;points=[];autosize=1;strokeColor=none;fillColor=none;fontSize=16;" vertex="1" parent="1">
          <mxGeometry x="-3460" y="541" width="60" height="30" as="geometry" />
        </mxCell>
        <mxCell id="UezKkUueuSIgXUtP9DaV-15" value="" style="edgeStyle=orthogonalEdgeStyle;rounded=0;orthogonalLoop=1;jettySize=auto;html=1;" edge="1" parent="1" target="eLRa3TU9Jxvd6dPgThX7-220">
          <mxGeometry relative="1" as="geometry">
            <mxPoint x="-3534" y="745" as="sourcePoint" />
          </mxGeometry>
        </mxCell>
        <mxCell id="UezKkUueuSIgXUtP9DaV-16" value="" style="endArrow=none;html=1;rounded=0;" edge="1" parent="1">
          <mxGeometry width="50" height="50" relative="1" as="geometry">
            <mxPoint x="-3340" y="890" as="sourcePoint" />
            <mxPoint x="-3340" y="500" as="targetPoint" />
          </mxGeometry>
        </mxCell>
        <mxCell id="UezKkUueuSIgXUtP9DaV-17" value="" style="endArrow=classic;html=1;rounded=0;" edge="1" parent="1">
          <mxGeometry width="50" height="50" relative="1" as="geometry">
            <mxPoint x="-3340" y="890" as="sourcePoint" />
            <mxPoint x="-3530" y="890" as="targetPoint" />
          </mxGeometry>
        </mxCell>
        <mxCell id="UezKkUueuSIgXUtP9DaV-24" value="" style="edgeStyle=orthogonalEdgeStyle;rounded=0;orthogonalLoop=1;jettySize=auto;html=1;" edge="1" parent="1" source="UezKkUueuSIgXUtP9DaV-21" target="UezKkUueuSIgXUtP9DaV-23">
          <mxGeometry relative="1" as="geometry" />
        </mxCell>
        <mxCell id="UezKkUueuSIgXUtP9DaV-21" value="input_valid&lt;div&gt;(nama baru)&lt;/div&gt;" style="shape=process;whiteSpace=wrap;html=1;backgroundOutline=1;strokeWidth=2;" vertex="1" parent="1">
          <mxGeometry x="-3595" y="586" width="120" height="70" as="geometry" />
        </mxCell>
        <mxCell id="UezKkUueuSIgXUtP9DaV-23" value="input_valid&lt;div&gt;(posisi baru)&lt;/div&gt;" style="shape=process;whiteSpace=wrap;html=1;backgroundOutline=1;strokeWidth=2;" vertex="1" parent="1">
          <mxGeometry x="-3595" y="691" width="120" height="70" as="geometry" />
        </mxCell>
        <mxCell id="UezKkUueuSIgXUtP9DaV-29" value="input_valid&lt;div&gt;(no punggung pemain yang ingin di hapus)&lt;/div&gt;" style="shape=process;whiteSpace=wrap;html=1;backgroundOutline=1;strokeWidth=2;" vertex="1" parent="1">
          <mxGeometry x="-3166" y="425" width="120" height="70" as="geometry" />
        </mxCell>
        <mxCell id="UezKkUueuSIgXUtP9DaV-31" value="input_valid&lt;div&gt;(nama pemain)&lt;/div&gt;" style="shape=process;whiteSpace=wrap;html=1;backgroundOutline=1;strokeWidth=2;" vertex="1" parent="1">
          <mxGeometry x="-1755" y="571" width="105" height="65" as="geometry" />
        </mxCell>
        <mxCell id="UezKkUueuSIgXUtP9DaV-32" value="input_valid&lt;div&gt;(posisi pemain)&lt;/div&gt;" style="shape=process;whiteSpace=wrap;html=1;backgroundOutline=1;strokeWidth=2;" vertex="1" parent="1">
          <mxGeometry x="-1619.5" y="571" width="105" height="65" as="geometry" />
        </mxCell>
        <mxCell id="UezKkUueuSIgXUtP9DaV-33" value="input_valid&lt;div&gt;(no punggung pemain)&lt;/div&gt;" style="shape=process;whiteSpace=wrap;html=1;backgroundOutline=1;strokeWidth=2;" vertex="1" parent="1">
          <mxGeometry x="-1483" y="572" width="105" height="65" as="geometry" />
        </mxCell>
        <mxCell id="UezKkUueuSIgXUtP9DaV-34" value="input_valid&lt;div&gt;(no punggung)&lt;/div&gt;" style="shape=process;whiteSpace=wrap;html=1;backgroundOutline=1;strokeWidth=2;" vertex="1" parent="1">
          <mxGeometry x="-1560" y="896" width="120" height="70" as="geometry" />
        </mxCell>
        <mxCell id="UezKkUueuSIgXUtP9DaV-36" value="input_valid&lt;div&gt;(password)&lt;/div&gt;" style="shape=process;whiteSpace=wrap;html=1;backgroundOutline=1;strokeWidth=2;" vertex="1" parent="1">
          <mxGeometry x="610" y="386" width="90" height="50" as="geometry" />
        </mxCell>
        <mxCell id="UezKkUueuSIgXUtP9DaV-39" value="" style="endArrow=classic;html=1;rounded=0;entryX=0;entryY=0.5;entryDx=0;entryDy=0;" edge="1" parent="1" target="UezKkUueuSIgXUtP9DaV-36">
          <mxGeometry width="50" height="50" relative="1" as="geometry">
            <mxPoint x="578" y="411" as="sourcePoint" />
            <mxPoint x="628" y="361" as="targetPoint" />
          </mxGeometry>
        </mxCell>
        <mxCell id="UezKkUueuSIgXUtP9DaV-40" value="" style="endArrow=classic;html=1;rounded=0;" edge="1" parent="1">
          <mxGeometry width="50" height="50" relative="1" as="geometry">
            <mxPoint x="700" y="410" as="sourcePoint" />
            <mxPoint x="720" y="410" as="targetPoint" />
          </mxGeometry>
        </mxCell>
        <mxCell id="UezKkUueuSIgXUtP9DaV-41" value="input_valid&lt;div&gt;(password)&lt;/div&gt;" style="shape=process;whiteSpace=wrap;html=1;backgroundOutline=1;strokeWidth=2;" vertex="1" parent="1">
          <mxGeometry x="215" y="576.5" width="90" height="50" as="geometry" />
        </mxCell>
        <mxCell id="UezKkUueuSIgXUtP9DaV-42" value="" style="endArrow=classic;html=1;rounded=0;entryX=0.5;entryY=0;entryDx=0;entryDy=0;" edge="1" parent="1" source="eLRa3TU9Jxvd6dPgThX7-3" target="UezKkUueuSIgXUtP9DaV-41">
          <mxGeometry width="50" height="50" relative="1" as="geometry">
            <mxPoint x="260" y="595.5" as="sourcePoint" />
            <mxPoint x="260.5" y="571.01" as="targetPoint" />
          </mxGeometry>
        </mxCell>
        <mxCell id="UezKkUueuSIgXUtP9DaV-43" value="" style="endArrow=classic;html=1;rounded=0;entryX=0.5;entryY=0.024;entryDx=0;entryDy=0;entryPerimeter=0;" edge="1" parent="1" source="UezKkUueuSIgXUtP9DaV-41" target="WtSMKF77AdU1jD58VCQP-95">
          <mxGeometry width="50" height="50" relative="1" as="geometry">
            <mxPoint x="263.5" y="675.49" as="sourcePoint" />
            <mxPoint x="263.5" y="696.2006781186548" as="targetPoint" />
          </mxGeometry>
        </mxCell>
      </root>
    </mxGraphModel>
  </diagram>
</mxfile>
